G75*
%MOIN*%
%OFA0B0*%
%FSLAX24Y24*%
%IPPOS*%
%LPD*%
%AMOC8*
5,1,8,0,0,1.08239X$1,22.5*
%
%ADD10C,0.0060*%
%ADD11C,0.0080*%
%ADD12R,0.0400X0.0150*%
%ADD13R,0.0400X0.4000*%
D10*
X001267Y007967D02*
X001017Y008217D01*
X001017Y008717D01*
X001267Y008967D01*
X002767Y008967D01*
X003017Y009217D01*
X003017Y009717D01*
X002767Y009967D01*
X001267Y009967D01*
X001017Y010217D01*
X001017Y010717D01*
X001267Y010967D01*
X001017Y011217D01*
X001017Y011717D01*
X001267Y011967D01*
X002767Y011967D01*
X003017Y011717D01*
X003017Y011217D01*
X002767Y010967D01*
X001267Y010967D01*
X001267Y009967D02*
X001017Y009717D01*
X001017Y009217D01*
X001267Y008967D01*
X001267Y007967D02*
X002767Y007967D01*
X003017Y008217D01*
X003017Y008717D01*
X002767Y008967D01*
X002767Y009967D02*
X003017Y010217D01*
X003017Y010717D01*
X002767Y010967D01*
X001823Y014041D02*
X001823Y016241D01*
X016423Y016241D01*
X016423Y015391D01*
X016393Y015389D01*
X016363Y015384D01*
X016334Y015375D01*
X016307Y015362D01*
X016281Y015347D01*
X016257Y015328D01*
X016236Y015307D01*
X016217Y015283D01*
X016202Y015257D01*
X016189Y015230D01*
X016180Y015201D01*
X016175Y015171D01*
X016173Y015141D01*
X016175Y015111D01*
X016180Y015081D01*
X016189Y015052D01*
X016202Y015025D01*
X016217Y014999D01*
X016236Y014975D01*
X016257Y014954D01*
X016281Y014935D01*
X016307Y014920D01*
X016334Y014907D01*
X016363Y014898D01*
X016393Y014893D01*
X016423Y014891D01*
X016423Y014041D01*
X001823Y014041D01*
X004854Y011973D02*
X004854Y010673D01*
X004854Y009373D01*
X004854Y008073D01*
X009454Y008073D01*
X009454Y009373D01*
X009454Y010673D01*
X009454Y011973D01*
X004854Y011973D01*
X005354Y010773D02*
X005954Y010773D01*
X005954Y009273D01*
X005354Y009273D01*
X005354Y010773D01*
X005054Y010673D02*
X004854Y010673D01*
X005054Y010673D02*
X005054Y009373D01*
X004854Y009373D01*
X006354Y009273D02*
X006954Y009273D01*
X006954Y010773D01*
X006354Y010773D01*
X006354Y009273D01*
X007354Y009273D02*
X007954Y009273D01*
X007954Y010773D01*
X007354Y010773D01*
X007354Y009273D01*
X008354Y009273D02*
X008354Y010773D01*
X008954Y010773D01*
X008954Y009273D01*
X008354Y009273D01*
X009254Y009373D02*
X009254Y010673D01*
X009454Y010673D01*
X009454Y009373D02*
X009254Y009373D01*
X011343Y020730D02*
X011343Y022150D01*
X013202Y022150D02*
X013202Y020730D01*
D11*
X003986Y006904D02*
X003986Y002904D01*
X004386Y002904D01*
X004386Y006904D01*
X003986Y006904D01*
X004386Y006904D02*
X005336Y006904D01*
X005336Y006905D02*
X005370Y006904D01*
X005405Y006900D01*
X005438Y006892D01*
X005471Y006881D01*
X005502Y006866D01*
X005532Y006849D01*
X005560Y006828D01*
X005586Y006805D01*
X005609Y006779D01*
X005630Y006751D01*
X005647Y006721D01*
X005662Y006690D01*
X005673Y006657D01*
X005681Y006624D01*
X005685Y006589D01*
X005686Y006555D01*
X005686Y006554D02*
X005686Y006404D01*
X005686Y003404D02*
X005686Y003254D01*
X005685Y003220D01*
X005681Y003185D01*
X005673Y003152D01*
X005662Y003119D01*
X005647Y003088D01*
X005630Y003058D01*
X005609Y003030D01*
X005586Y003004D01*
X005560Y002981D01*
X005532Y002960D01*
X005502Y002943D01*
X005471Y002928D01*
X005438Y002917D01*
X005405Y002909D01*
X005370Y002905D01*
X005336Y002904D01*
X004386Y002904D01*
X008479Y004404D02*
X008979Y004404D01*
X010841Y004404D02*
X011341Y004404D01*
X013965Y004747D02*
X013965Y003920D01*
X018178Y003920D01*
X018178Y007463D01*
X016091Y007463D01*
X014241Y007463D02*
X013965Y007463D01*
X013965Y006637D01*
X013123Y008823D02*
X011423Y008823D01*
X011073Y009623D02*
X011073Y010427D01*
X011423Y011223D02*
X013123Y011223D01*
X013473Y010415D02*
X013473Y009623D01*
X011573Y010023D02*
X011575Y010075D01*
X011581Y010127D01*
X011591Y010179D01*
X011604Y010229D01*
X011621Y010279D01*
X011642Y010327D01*
X011667Y010373D01*
X011695Y010417D01*
X011726Y010459D01*
X011760Y010499D01*
X011797Y010536D01*
X011837Y010570D01*
X011879Y010601D01*
X011923Y010629D01*
X011969Y010654D01*
X012017Y010675D01*
X012067Y010692D01*
X012117Y010705D01*
X012169Y010715D01*
X012221Y010721D01*
X012273Y010723D01*
X012325Y010721D01*
X012377Y010715D01*
X012429Y010705D01*
X012479Y010692D01*
X012529Y010675D01*
X012577Y010654D01*
X012623Y010629D01*
X012667Y010601D01*
X012709Y010570D01*
X012749Y010536D01*
X012786Y010499D01*
X012820Y010459D01*
X012851Y010417D01*
X012879Y010373D01*
X012904Y010327D01*
X012925Y010279D01*
X012942Y010229D01*
X012955Y010179D01*
X012965Y010127D01*
X012971Y010075D01*
X012973Y010023D01*
X012971Y009971D01*
X012965Y009919D01*
X012955Y009867D01*
X012942Y009817D01*
X012925Y009767D01*
X012904Y009719D01*
X012879Y009673D01*
X012851Y009629D01*
X012820Y009587D01*
X012786Y009547D01*
X012749Y009510D01*
X012709Y009476D01*
X012667Y009445D01*
X012623Y009417D01*
X012577Y009392D01*
X012529Y009371D01*
X012479Y009354D01*
X012429Y009341D01*
X012377Y009331D01*
X012325Y009325D01*
X012273Y009323D01*
X012221Y009325D01*
X012169Y009331D01*
X012117Y009341D01*
X012067Y009354D01*
X012017Y009371D01*
X011969Y009392D01*
X011923Y009417D01*
X011879Y009445D01*
X011837Y009476D01*
X011797Y009510D01*
X011760Y009547D01*
X011726Y009587D01*
X011695Y009629D01*
X011667Y009673D01*
X011642Y009719D01*
X011621Y009767D01*
X011604Y009817D01*
X011591Y009867D01*
X011581Y009919D01*
X011575Y009971D01*
X011573Y010023D01*
X015960Y018184D02*
X015710Y018434D01*
X015710Y018934D01*
X015960Y019184D01*
X015710Y019434D01*
X015710Y019934D01*
X015960Y020184D01*
X015710Y020434D01*
X015710Y020934D01*
X015960Y021184D01*
X015710Y021434D01*
X015710Y021934D01*
X015960Y022184D01*
X015710Y022434D01*
X015710Y022934D01*
X015960Y023184D01*
X016460Y023184D01*
X016710Y022934D01*
X016710Y022434D01*
X016460Y022184D01*
X016710Y021934D01*
X016710Y021434D01*
X016460Y021184D01*
X016710Y020934D01*
X016710Y020434D01*
X016460Y020184D01*
X016710Y019934D01*
X016710Y019434D01*
X016460Y019184D01*
X016710Y018934D01*
X016710Y018434D01*
X016460Y018184D01*
X015960Y018184D01*
X012926Y021830D02*
X012928Y021845D01*
X012934Y021858D01*
X012943Y021870D01*
X012954Y021879D01*
X012968Y021885D01*
X012983Y021887D01*
X012998Y021885D01*
X013011Y021879D01*
X013023Y021870D01*
X013032Y021859D01*
X013038Y021845D01*
X013040Y021830D01*
X013038Y021815D01*
X013032Y021802D01*
X013023Y021790D01*
X013012Y021781D01*
X012998Y021775D01*
X012983Y021773D01*
X012968Y021775D01*
X012955Y021781D01*
X012943Y021790D01*
X012934Y021801D01*
X012928Y021815D01*
X012926Y021830D01*
X014528Y024733D02*
X014528Y025233D01*
X012379Y026702D02*
X012379Y027202D01*
X012129Y027452D01*
X012379Y027702D01*
X012379Y028202D01*
X012129Y028452D01*
X011629Y028452D01*
X011379Y028202D01*
X011379Y027702D01*
X011629Y027452D01*
X011379Y027202D01*
X011379Y026702D01*
X011629Y026452D01*
X012129Y026452D01*
X012379Y026702D01*
X010623Y025233D02*
X010623Y024733D01*
X010373Y024483D01*
X009873Y024483D01*
X009623Y024733D01*
X009373Y024483D01*
X008873Y024483D01*
X008623Y024733D01*
X008623Y025233D01*
X008873Y025483D01*
X009373Y025483D01*
X009623Y025233D01*
X009873Y025483D01*
X010373Y025483D01*
X010623Y025233D01*
X009373Y026452D02*
X009623Y026702D01*
X009623Y027202D01*
X009373Y027452D01*
X009623Y027702D01*
X009623Y028202D01*
X009373Y028452D01*
X008873Y028452D01*
X008623Y028202D01*
X008623Y027702D01*
X008873Y027452D01*
X008623Y027202D01*
X008623Y026702D01*
X008873Y026452D01*
X009373Y026452D01*
X007473Y025233D02*
X007473Y024733D01*
X007223Y024483D01*
X006723Y024483D01*
X006473Y024733D01*
X006223Y024483D01*
X005723Y024483D01*
X005473Y024733D01*
X005473Y025233D01*
X005723Y025483D01*
X006223Y025483D01*
X006473Y025233D01*
X006723Y025483D01*
X007223Y025483D01*
X007473Y025233D01*
X006617Y026452D02*
X006867Y026702D01*
X006867Y027202D01*
X006617Y027452D01*
X006867Y027702D01*
X006867Y028202D01*
X006617Y028452D01*
X006117Y028452D01*
X005867Y028202D01*
X005867Y027702D01*
X006117Y027452D01*
X005867Y027202D01*
X005867Y026702D01*
X006117Y026452D01*
X006617Y026452D01*
X007717Y023127D02*
X005017Y023127D01*
X004958Y023125D01*
X004900Y023119D01*
X004841Y023110D01*
X004784Y023096D01*
X004728Y023079D01*
X004673Y023058D01*
X004619Y023034D01*
X004567Y023006D01*
X004517Y022975D01*
X004469Y022941D01*
X004424Y022904D01*
X004381Y022863D01*
X004340Y022820D01*
X004303Y022775D01*
X004269Y022727D01*
X004238Y022677D01*
X004210Y022625D01*
X004186Y022571D01*
X004165Y022516D01*
X004148Y022460D01*
X004134Y022403D01*
X004125Y022344D01*
X004119Y022286D01*
X004117Y022227D01*
X004119Y022168D01*
X004125Y022110D01*
X004134Y022051D01*
X004148Y021994D01*
X004165Y021938D01*
X004186Y021883D01*
X004210Y021829D01*
X004238Y021777D01*
X004269Y021727D01*
X004303Y021679D01*
X004340Y021634D01*
X004381Y021591D01*
X004424Y021550D01*
X004469Y021513D01*
X004517Y021479D01*
X004567Y021448D01*
X004619Y021420D01*
X004673Y021396D01*
X004728Y021375D01*
X004784Y021358D01*
X004841Y021344D01*
X004900Y021335D01*
X004958Y021329D01*
X005017Y021327D01*
X007717Y021327D01*
X007776Y021329D01*
X007834Y021335D01*
X007893Y021344D01*
X007950Y021358D01*
X008006Y021375D01*
X008061Y021396D01*
X008115Y021420D01*
X008167Y021448D01*
X008217Y021479D01*
X008265Y021513D01*
X008310Y021550D01*
X008353Y021591D01*
X008394Y021634D01*
X008431Y021679D01*
X008465Y021727D01*
X008496Y021777D01*
X008524Y021829D01*
X008548Y021883D01*
X008569Y021938D01*
X008586Y021994D01*
X008600Y022051D01*
X008609Y022110D01*
X008615Y022168D01*
X008617Y022227D01*
X008615Y022286D01*
X008609Y022344D01*
X008600Y022403D01*
X008586Y022460D01*
X008569Y022516D01*
X008548Y022571D01*
X008524Y022625D01*
X008496Y022677D01*
X008465Y022727D01*
X008431Y022775D01*
X008394Y022820D01*
X008353Y022863D01*
X008310Y022904D01*
X008265Y022941D01*
X008217Y022975D01*
X008167Y023006D01*
X008115Y023034D01*
X008061Y023058D01*
X008006Y023079D01*
X007950Y023096D01*
X007893Y023110D01*
X007834Y023119D01*
X007776Y023125D01*
X007717Y023127D01*
X007798Y018971D02*
X007298Y018971D01*
X005436Y018971D02*
X004936Y018971D01*
X002143Y018765D02*
X001893Y018515D01*
X002143Y018265D01*
X002143Y017765D01*
X001893Y017515D01*
X001393Y017515D01*
X001143Y017765D01*
X001143Y018265D01*
X001393Y018515D01*
X001143Y018765D01*
X001143Y019265D01*
X001393Y019515D01*
X001143Y019765D01*
X001143Y020265D01*
X001393Y020515D01*
X001143Y020765D01*
X001143Y021265D01*
X001393Y021515D01*
X001143Y021765D01*
X001143Y022265D01*
X001393Y022515D01*
X001143Y022765D01*
X001143Y023265D01*
X001393Y023515D01*
X001893Y023515D01*
X002143Y023265D01*
X002143Y022765D01*
X001893Y022515D01*
X002143Y022265D01*
X002143Y021765D01*
X001893Y021515D01*
X002143Y021265D01*
X002143Y020765D01*
X001893Y020515D01*
X002143Y020265D01*
X002143Y019765D01*
X001893Y019515D01*
X002143Y019265D01*
X002143Y018765D01*
X002574Y024483D02*
X003074Y024483D01*
X003324Y024733D01*
X003574Y024483D01*
X004074Y024483D01*
X004324Y024733D01*
X004324Y025233D01*
X004074Y025483D01*
X003574Y025483D01*
X003324Y025233D01*
X003074Y025483D01*
X002574Y025483D01*
X002324Y025233D01*
X002324Y024733D01*
X002574Y024483D01*
D12*
X005654Y009948D03*
X005654Y009698D03*
X005654Y009448D03*
X006654Y009448D03*
X006654Y009698D03*
X006654Y009948D03*
X007654Y009948D03*
X007654Y009698D03*
X007654Y009448D03*
X008654Y009448D03*
X008654Y009698D03*
X008654Y009948D03*
D13*
X004186Y004904D03*
M02*
