G75*
%MOIN*%
%OFA0B0*%
%FSLAX24Y24*%
%IPPOS*%
%LPD*%
%AMOC8*
5,1,8,0,0,1.08239X$1,22.5*
%
%ADD10C,0.0000*%
%ADD11OC8,0.0660*%
%ADD12C,0.0740*%
%ADD13C,0.0520*%
%ADD14R,0.0240X0.0870*%
%ADD15C,0.0600*%
%ADD16C,0.0650*%
%ADD17C,0.1700*%
%ADD18C,0.0100*%
%ADD19C,0.0400*%
%ADD20C,0.0160*%
D10*
X000462Y000180D02*
X000462Y029708D01*
X018178Y029708D01*
X018178Y000180D01*
X000462Y000180D01*
X001780Y002149D02*
X001782Y002199D01*
X001788Y002249D01*
X001798Y002299D01*
X001811Y002347D01*
X001828Y002395D01*
X001849Y002441D01*
X001873Y002485D01*
X001901Y002527D01*
X001932Y002567D01*
X001966Y002604D01*
X002003Y002639D01*
X002042Y002670D01*
X002083Y002699D01*
X002127Y002724D01*
X002173Y002746D01*
X002220Y002764D01*
X002268Y002778D01*
X002317Y002789D01*
X002367Y002796D01*
X002417Y002799D01*
X002468Y002798D01*
X002518Y002793D01*
X002568Y002784D01*
X002616Y002772D01*
X002664Y002755D01*
X002710Y002735D01*
X002755Y002712D01*
X002798Y002685D01*
X002838Y002655D01*
X002876Y002622D01*
X002911Y002586D01*
X002944Y002547D01*
X002973Y002506D01*
X002999Y002463D01*
X003022Y002418D01*
X003041Y002371D01*
X003056Y002323D01*
X003068Y002274D01*
X003076Y002224D01*
X003080Y002174D01*
X003080Y002124D01*
X003076Y002074D01*
X003068Y002024D01*
X003056Y001975D01*
X003041Y001927D01*
X003022Y001880D01*
X002999Y001835D01*
X002973Y001792D01*
X002944Y001751D01*
X002911Y001712D01*
X002876Y001676D01*
X002838Y001643D01*
X002798Y001613D01*
X002755Y001586D01*
X002710Y001563D01*
X002664Y001543D01*
X002616Y001526D01*
X002568Y001514D01*
X002518Y001505D01*
X002468Y001500D01*
X002417Y001499D01*
X002367Y001502D01*
X002317Y001509D01*
X002268Y001520D01*
X002220Y001534D01*
X002173Y001552D01*
X002127Y001574D01*
X002083Y001599D01*
X002042Y001628D01*
X002003Y001659D01*
X001966Y001694D01*
X001932Y001731D01*
X001901Y001771D01*
X001873Y001813D01*
X001849Y001857D01*
X001828Y001903D01*
X001811Y001951D01*
X001798Y001999D01*
X001788Y002049D01*
X001782Y002099D01*
X001780Y002149D01*
X015560Y002149D02*
X015562Y002199D01*
X015568Y002249D01*
X015578Y002299D01*
X015591Y002347D01*
X015608Y002395D01*
X015629Y002441D01*
X015653Y002485D01*
X015681Y002527D01*
X015712Y002567D01*
X015746Y002604D01*
X015783Y002639D01*
X015822Y002670D01*
X015863Y002699D01*
X015907Y002724D01*
X015953Y002746D01*
X016000Y002764D01*
X016048Y002778D01*
X016097Y002789D01*
X016147Y002796D01*
X016197Y002799D01*
X016248Y002798D01*
X016298Y002793D01*
X016348Y002784D01*
X016396Y002772D01*
X016444Y002755D01*
X016490Y002735D01*
X016535Y002712D01*
X016578Y002685D01*
X016618Y002655D01*
X016656Y002622D01*
X016691Y002586D01*
X016724Y002547D01*
X016753Y002506D01*
X016779Y002463D01*
X016802Y002418D01*
X016821Y002371D01*
X016836Y002323D01*
X016848Y002274D01*
X016856Y002224D01*
X016860Y002174D01*
X016860Y002124D01*
X016856Y002074D01*
X016848Y002024D01*
X016836Y001975D01*
X016821Y001927D01*
X016802Y001880D01*
X016779Y001835D01*
X016753Y001792D01*
X016724Y001751D01*
X016691Y001712D01*
X016656Y001676D01*
X016618Y001643D01*
X016578Y001613D01*
X016535Y001586D01*
X016490Y001563D01*
X016444Y001543D01*
X016396Y001526D01*
X016348Y001514D01*
X016298Y001505D01*
X016248Y001500D01*
X016197Y001499D01*
X016147Y001502D01*
X016097Y001509D01*
X016048Y001520D01*
X016000Y001534D01*
X015953Y001552D01*
X015907Y001574D01*
X015863Y001599D01*
X015822Y001628D01*
X015783Y001659D01*
X015746Y001694D01*
X015712Y001731D01*
X015681Y001771D01*
X015653Y001813D01*
X015629Y001857D01*
X015608Y001903D01*
X015591Y001951D01*
X015578Y001999D01*
X015568Y002049D01*
X015562Y002099D01*
X015560Y002149D01*
X015560Y027739D02*
X015562Y027789D01*
X015568Y027839D01*
X015578Y027889D01*
X015591Y027937D01*
X015608Y027985D01*
X015629Y028031D01*
X015653Y028075D01*
X015681Y028117D01*
X015712Y028157D01*
X015746Y028194D01*
X015783Y028229D01*
X015822Y028260D01*
X015863Y028289D01*
X015907Y028314D01*
X015953Y028336D01*
X016000Y028354D01*
X016048Y028368D01*
X016097Y028379D01*
X016147Y028386D01*
X016197Y028389D01*
X016248Y028388D01*
X016298Y028383D01*
X016348Y028374D01*
X016396Y028362D01*
X016444Y028345D01*
X016490Y028325D01*
X016535Y028302D01*
X016578Y028275D01*
X016618Y028245D01*
X016656Y028212D01*
X016691Y028176D01*
X016724Y028137D01*
X016753Y028096D01*
X016779Y028053D01*
X016802Y028008D01*
X016821Y027961D01*
X016836Y027913D01*
X016848Y027864D01*
X016856Y027814D01*
X016860Y027764D01*
X016860Y027714D01*
X016856Y027664D01*
X016848Y027614D01*
X016836Y027565D01*
X016821Y027517D01*
X016802Y027470D01*
X016779Y027425D01*
X016753Y027382D01*
X016724Y027341D01*
X016691Y027302D01*
X016656Y027266D01*
X016618Y027233D01*
X016578Y027203D01*
X016535Y027176D01*
X016490Y027153D01*
X016444Y027133D01*
X016396Y027116D01*
X016348Y027104D01*
X016298Y027095D01*
X016248Y027090D01*
X016197Y027089D01*
X016147Y027092D01*
X016097Y027099D01*
X016048Y027110D01*
X016000Y027124D01*
X015953Y027142D01*
X015907Y027164D01*
X015863Y027189D01*
X015822Y027218D01*
X015783Y027249D01*
X015746Y027284D01*
X015712Y027321D01*
X015681Y027361D01*
X015653Y027403D01*
X015629Y027447D01*
X015608Y027493D01*
X015591Y027541D01*
X015578Y027589D01*
X015568Y027639D01*
X015562Y027689D01*
X015560Y027739D01*
X001780Y027739D02*
X001782Y027789D01*
X001788Y027839D01*
X001798Y027889D01*
X001811Y027937D01*
X001828Y027985D01*
X001849Y028031D01*
X001873Y028075D01*
X001901Y028117D01*
X001932Y028157D01*
X001966Y028194D01*
X002003Y028229D01*
X002042Y028260D01*
X002083Y028289D01*
X002127Y028314D01*
X002173Y028336D01*
X002220Y028354D01*
X002268Y028368D01*
X002317Y028379D01*
X002367Y028386D01*
X002417Y028389D01*
X002468Y028388D01*
X002518Y028383D01*
X002568Y028374D01*
X002616Y028362D01*
X002664Y028345D01*
X002710Y028325D01*
X002755Y028302D01*
X002798Y028275D01*
X002838Y028245D01*
X002876Y028212D01*
X002911Y028176D01*
X002944Y028137D01*
X002973Y028096D01*
X002999Y028053D01*
X003022Y028008D01*
X003041Y027961D01*
X003056Y027913D01*
X003068Y027864D01*
X003076Y027814D01*
X003080Y027764D01*
X003080Y027714D01*
X003076Y027664D01*
X003068Y027614D01*
X003056Y027565D01*
X003041Y027517D01*
X003022Y027470D01*
X002999Y027425D01*
X002973Y027382D01*
X002944Y027341D01*
X002911Y027302D01*
X002876Y027266D01*
X002838Y027233D01*
X002798Y027203D01*
X002755Y027176D01*
X002710Y027153D01*
X002664Y027133D01*
X002616Y027116D01*
X002568Y027104D01*
X002518Y027095D01*
X002468Y027090D01*
X002417Y027089D01*
X002367Y027092D01*
X002317Y027099D01*
X002268Y027110D01*
X002220Y027124D01*
X002173Y027142D01*
X002127Y027164D01*
X002083Y027189D01*
X002042Y027218D01*
X002003Y027249D01*
X001966Y027284D01*
X001932Y027321D01*
X001901Y027361D01*
X001873Y027403D01*
X001849Y027447D01*
X001828Y027493D01*
X001811Y027541D01*
X001798Y027589D01*
X001788Y027639D01*
X001782Y027689D01*
X001780Y027739D01*
D11*
X001517Y011467D03*
X001517Y010467D03*
X001517Y009467D03*
X001517Y008467D03*
X002517Y008467D03*
X002517Y009467D03*
X002517Y010467D03*
X002517Y011467D03*
D12*
X001643Y018015D03*
X001643Y019015D03*
X001643Y020015D03*
X001643Y021015D03*
X001643Y022015D03*
X001643Y023015D03*
X002824Y024983D03*
X003824Y024983D03*
X005973Y024983D03*
X006973Y024983D03*
X006367Y026952D03*
X006367Y027952D03*
X009123Y027952D03*
X009123Y026952D03*
X009123Y024983D03*
X010123Y024983D03*
X011879Y026952D03*
X011879Y027952D03*
X016210Y022684D03*
X016210Y021684D03*
X016210Y020684D03*
X016210Y019684D03*
X016210Y018684D03*
D13*
X015623Y016901D02*
X015623Y016381D01*
X014623Y016381D02*
X014623Y016901D01*
X013623Y016901D02*
X013623Y016381D01*
X012623Y016381D02*
X012623Y016901D01*
X011623Y016901D02*
X011623Y016381D01*
X010623Y016381D02*
X010623Y016901D01*
X009623Y016901D02*
X009623Y016381D01*
X008623Y016381D02*
X008623Y016901D01*
X007623Y016901D02*
X007623Y016381D01*
X006623Y016381D02*
X006623Y016901D01*
X005623Y016901D02*
X005623Y016381D01*
X004623Y016381D02*
X004623Y016901D01*
X003623Y016901D02*
X003623Y016381D01*
X002623Y016381D02*
X002623Y016901D01*
X002623Y013901D02*
X002623Y013381D01*
X003623Y013381D02*
X003623Y013901D01*
X004623Y013901D02*
X004623Y013381D01*
X005623Y013381D02*
X005623Y013901D01*
X006623Y013901D02*
X006623Y013381D01*
X007623Y013381D02*
X007623Y013901D01*
X008623Y013901D02*
X008623Y013381D01*
X009623Y013381D02*
X009623Y013901D01*
X010623Y013901D02*
X010623Y013381D01*
X011623Y013381D02*
X011623Y013901D01*
X012623Y013901D02*
X012623Y013381D01*
X013623Y013381D02*
X013623Y013901D01*
X014623Y013901D02*
X014623Y013381D01*
X015623Y013381D02*
X015623Y013901D01*
X008654Y011783D02*
X008654Y011263D01*
X007654Y011263D02*
X007654Y011783D01*
X006654Y011783D02*
X006654Y011263D01*
X005654Y011263D02*
X005654Y011783D01*
X005654Y008783D02*
X005654Y008263D01*
X006654Y008263D02*
X006654Y008783D01*
X007654Y008783D02*
X007654Y008263D01*
X008654Y008263D02*
X008654Y008783D01*
D14*
X011523Y020410D03*
X012023Y020410D03*
X012523Y020410D03*
X013023Y020410D03*
X013023Y022470D03*
X012523Y022470D03*
X012023Y022470D03*
X011523Y022470D03*
D15*
X011293Y010913D02*
X010693Y010913D01*
X010693Y009133D02*
X011293Y009133D01*
X013253Y009133D02*
X013853Y009133D01*
X013853Y010913D02*
X013253Y010913D01*
X005486Y005904D02*
X004886Y005904D01*
X004886Y004904D02*
X005486Y004904D01*
X005486Y003904D02*
X004886Y003904D01*
D16*
X008729Y003904D03*
X008729Y004904D03*
X011091Y004904D03*
X011091Y003904D03*
X007548Y018471D03*
X007548Y019471D03*
X007367Y022227D03*
X005367Y022227D03*
X005186Y019471D03*
X005186Y018471D03*
X014028Y024983D03*
X015028Y024983D03*
D17*
X015147Y007542D03*
X016328Y005692D03*
X013965Y005692D03*
D18*
X013553Y009133D02*
X013962Y009180D01*
X014462Y009680D01*
X014462Y010180D01*
X016962Y012680D01*
X016962Y016180D01*
X017462Y016180D02*
X015962Y017680D01*
X014962Y018180D02*
X016462Y016680D01*
X016462Y015180D01*
X016462Y014680D02*
X015462Y015680D01*
X015462Y015180D02*
X016462Y014180D01*
X016462Y012680D01*
X016962Y012180D02*
X017462Y012680D01*
X017462Y016180D01*
X014962Y018680D02*
X015962Y019680D01*
X016210Y019684D01*
X014962Y020680D02*
X015962Y021680D01*
X016210Y021684D01*
X014962Y020680D02*
X012962Y020680D01*
X013023Y020410D01*
X012962Y020180D01*
X012962Y019680D01*
X012462Y019180D01*
X010962Y019180D01*
X010962Y019680D01*
X007462Y023180D01*
X002462Y023180D01*
X002462Y017680D01*
X001462Y016680D01*
X001462Y013180D01*
X002462Y012180D01*
X003462Y012180D01*
X003462Y008680D01*
X002462Y007680D01*
X001462Y007680D01*
X001462Y008180D01*
X001517Y008467D01*
X001517Y010467D02*
X001462Y010680D01*
X000962Y011180D01*
X000962Y011680D01*
X001462Y012180D01*
X001962Y013180D02*
X002462Y012680D01*
X003462Y012680D01*
X003962Y012180D01*
X003962Y010180D01*
X006962Y010180D01*
X008462Y008680D01*
X008654Y008523D01*
X004462Y011180D02*
X004462Y012180D01*
X003462Y013180D01*
X003623Y013641D01*
X004462Y015180D02*
X004462Y016180D01*
X004623Y016641D01*
X005462Y016180D02*
X005462Y015680D01*
X009962Y015680D01*
X009962Y015180D02*
X004462Y015180D01*
X005462Y016180D02*
X005623Y016641D01*
X006462Y016680D02*
X006623Y016641D01*
X006462Y016680D02*
X004962Y018180D01*
X004962Y018680D01*
X005186Y018471D01*
X003623Y016641D02*
X003462Y016680D01*
X003462Y020680D01*
X007962Y020680D01*
X009462Y019180D01*
X008462Y019680D02*
X011462Y016680D01*
X011623Y016641D01*
X012462Y016680D02*
X012623Y016641D01*
X012462Y016680D02*
X007962Y021180D01*
X007548Y018471D02*
X007462Y018180D01*
X007462Y016680D01*
X007623Y016641D01*
X008962Y014680D02*
X011962Y014680D01*
X013462Y016180D01*
X013623Y016641D01*
X014462Y016680D02*
X014623Y016641D01*
X014462Y016680D02*
X014462Y020180D01*
X014962Y018680D02*
X014962Y018180D01*
X011962Y021680D02*
X011962Y022180D01*
X012023Y022470D01*
X011523Y022470D02*
X011462Y022180D01*
X010962Y022180D01*
X012962Y022680D02*
X013023Y022470D01*
X012962Y022680D02*
X014962Y024680D01*
X015028Y024983D01*
X002623Y016641D02*
X002462Y016180D01*
X001962Y015680D01*
X001962Y013180D01*
D19*
X001462Y012180D03*
X004462Y011180D03*
X008962Y014680D03*
X009962Y015180D03*
X009962Y015680D03*
X009462Y019180D03*
X008462Y019680D03*
X007962Y021180D03*
X010962Y022180D03*
X011962Y021680D03*
X014462Y020180D03*
X015962Y017680D03*
X016962Y016180D03*
X016462Y015180D03*
X016462Y014680D03*
X015462Y015180D03*
X015462Y015680D03*
X016462Y012680D03*
X016962Y012180D03*
D20*
X017200Y011909D02*
X017698Y011909D01*
X017698Y011751D02*
X016329Y011751D01*
X016488Y011909D02*
X016723Y011909D01*
X016758Y011875D02*
X016890Y011820D01*
X017033Y011820D01*
X017165Y011875D01*
X017267Y011976D01*
X017322Y012108D01*
X017322Y012243D01*
X017549Y012470D01*
X017672Y012593D01*
X017672Y016267D01*
X016322Y017617D01*
X016322Y017752D01*
X016267Y017884D01*
X016165Y017985D01*
X016033Y018040D01*
X015890Y018040D01*
X015758Y017985D01*
X015656Y017884D01*
X015627Y017812D01*
X015172Y018267D01*
X015172Y018593D01*
X015861Y019283D01*
X015909Y019235D01*
X016032Y019184D01*
X015909Y019133D01*
X015760Y018984D01*
X015680Y018789D01*
X015680Y018579D01*
X015760Y018384D01*
X015909Y018235D01*
X016104Y018154D01*
X016315Y018154D01*
X016510Y018235D01*
X016659Y018384D01*
X016740Y018579D01*
X016740Y018789D01*
X016659Y018984D01*
X016510Y019133D01*
X016387Y019184D01*
X016510Y019235D01*
X016659Y019384D01*
X016740Y019579D01*
X016740Y019789D01*
X016659Y019984D01*
X016510Y020133D01*
X016415Y020172D01*
X016421Y020174D01*
X016498Y020214D01*
X016568Y020264D01*
X016629Y020326D01*
X016680Y020396D01*
X016719Y020473D01*
X016746Y020555D01*
X016760Y020641D01*
X016760Y020664D01*
X016230Y020664D01*
X016230Y020704D01*
X016760Y020704D01*
X016760Y020727D01*
X016746Y020813D01*
X016719Y020895D01*
X016680Y020972D01*
X016629Y021042D01*
X016568Y021103D01*
X016498Y021154D01*
X016421Y021194D01*
X016415Y021195D01*
X016510Y021235D01*
X016659Y021384D01*
X016740Y021579D01*
X016740Y021789D01*
X016659Y021984D01*
X016510Y022133D01*
X016387Y022184D01*
X016510Y022235D01*
X016659Y022384D01*
X016740Y022579D01*
X016740Y022789D01*
X016659Y022984D01*
X016510Y023133D01*
X016315Y023214D01*
X016104Y023214D01*
X015909Y023133D01*
X015760Y022984D01*
X015680Y022789D01*
X015680Y022579D01*
X015760Y022384D01*
X015909Y022235D01*
X016032Y022184D01*
X015909Y022133D01*
X015760Y021984D01*
X015680Y021789D01*
X015680Y021695D01*
X014875Y020890D01*
X013303Y020890D01*
X013303Y020911D01*
X013209Y021005D01*
X012836Y021005D01*
X012773Y020941D01*
X012709Y021005D01*
X012336Y021005D01*
X012273Y020941D01*
X012209Y021005D01*
X011836Y021005D01*
X011773Y020941D01*
X011709Y021005D01*
X011336Y021005D01*
X011243Y020911D01*
X011243Y019909D01*
X011336Y019815D01*
X011709Y019815D01*
X011773Y019879D01*
X011836Y019815D01*
X012209Y019815D01*
X012273Y019879D01*
X012336Y019815D01*
X012709Y019815D01*
X012752Y019858D01*
X012752Y019767D01*
X012375Y019390D01*
X011172Y019390D01*
X011172Y019767D01*
X007672Y023267D01*
X007549Y023390D01*
X002375Y023390D01*
X002252Y023267D01*
X002252Y017767D01*
X001375Y016890D01*
X001252Y016767D01*
X001252Y013093D01*
X002252Y012093D01*
X002375Y011970D01*
X003252Y011970D01*
X003252Y008767D01*
X003027Y008542D01*
X003027Y008679D01*
X002728Y008977D01*
X002537Y008977D01*
X002537Y008487D01*
X002497Y008487D01*
X002497Y008447D01*
X002007Y008447D01*
X002007Y008256D01*
X002305Y007957D01*
X002442Y007957D01*
X002375Y007890D01*
X001672Y007890D01*
X001672Y007977D01*
X001720Y007977D01*
X002007Y008264D01*
X002007Y008670D01*
X001720Y008957D01*
X001314Y008957D01*
X001027Y008670D01*
X001027Y008264D01*
X001252Y008040D01*
X001252Y007593D01*
X001375Y007470D01*
X002549Y007470D01*
X002672Y007593D01*
X003672Y008593D01*
X003672Y012173D01*
X003752Y012093D01*
X003752Y010093D01*
X003875Y009970D01*
X006875Y009970D01*
X007642Y009203D01*
X007571Y009203D01*
X007417Y009139D01*
X007298Y009020D01*
X007234Y008866D01*
X007234Y008179D01*
X007298Y008025D01*
X007417Y007906D01*
X007571Y007843D01*
X007738Y007843D01*
X007892Y007906D01*
X008011Y008025D01*
X008074Y008179D01*
X008074Y008770D01*
X008234Y008610D01*
X008234Y008179D01*
X008298Y008025D01*
X008417Y007906D01*
X008571Y007843D01*
X008738Y007843D01*
X008892Y007906D01*
X009011Y008025D01*
X009074Y008179D01*
X009074Y008866D01*
X009011Y009020D01*
X008892Y009139D01*
X008738Y009203D01*
X008571Y009203D01*
X008417Y009139D01*
X008358Y009080D01*
X007172Y010267D01*
X007049Y010390D01*
X004172Y010390D01*
X004172Y010961D01*
X004258Y010875D01*
X004390Y010820D01*
X004533Y010820D01*
X004665Y010875D01*
X004767Y010976D01*
X004822Y011108D01*
X004822Y011252D01*
X004767Y011384D01*
X004672Y011479D01*
X004672Y012267D01*
X004549Y012390D01*
X003887Y013051D01*
X003979Y013143D01*
X004043Y013297D01*
X004043Y013984D01*
X003979Y014139D01*
X003861Y014257D01*
X003707Y014321D01*
X003539Y014321D01*
X003385Y014257D01*
X003267Y014139D01*
X003203Y013984D01*
X003203Y013297D01*
X003245Y013196D01*
X003235Y013167D01*
X003252Y013132D01*
X003252Y013093D01*
X003288Y013057D01*
X003310Y013011D01*
X003347Y012998D01*
X003455Y012890D01*
X002549Y012890D01*
X002434Y013004D01*
X002539Y012961D01*
X002707Y012961D01*
X002861Y013025D01*
X002979Y013143D01*
X003043Y013297D01*
X003043Y013984D01*
X002979Y014139D01*
X002861Y014257D01*
X002707Y014321D01*
X002539Y014321D01*
X002385Y014257D01*
X002267Y014139D01*
X002203Y013984D01*
X002203Y013297D01*
X002246Y013192D01*
X002172Y013267D01*
X002172Y015593D01*
X002539Y015961D01*
X002539Y015961D01*
X002707Y015961D01*
X002861Y016025D01*
X002979Y016143D01*
X003043Y016297D01*
X003043Y016984D01*
X002979Y017139D01*
X002861Y017257D01*
X002707Y017321D01*
X002539Y017321D01*
X002385Y017257D01*
X002267Y017139D01*
X002203Y016984D01*
X002203Y016297D01*
X002226Y016241D01*
X001752Y015767D01*
X001752Y013187D01*
X001672Y013267D01*
X001672Y016593D01*
X002672Y017593D01*
X002672Y022970D01*
X007375Y022970D01*
X010752Y019593D01*
X010752Y019093D01*
X010875Y018970D01*
X012549Y018970D01*
X012672Y019093D01*
X013172Y019593D01*
X013172Y019815D01*
X013209Y019815D01*
X013303Y019909D01*
X013303Y020470D01*
X014242Y020470D01*
X014156Y020384D01*
X014102Y020252D01*
X014102Y020108D01*
X014156Y019976D01*
X014252Y019881D01*
X014252Y017101D01*
X014203Y016984D01*
X014203Y016297D01*
X014267Y016143D01*
X014385Y016025D01*
X014539Y015961D01*
X014707Y015961D01*
X014861Y016025D01*
X014979Y016143D01*
X015043Y016297D01*
X015043Y016984D01*
X014979Y017139D01*
X014861Y017257D01*
X014707Y017321D01*
X014672Y017321D01*
X014672Y019881D01*
X014767Y019976D01*
X014822Y020108D01*
X014822Y020252D01*
X014767Y020384D01*
X014681Y020470D01*
X015049Y020470D01*
X015861Y021283D01*
X015909Y021235D01*
X016004Y021195D01*
X015998Y021194D01*
X015921Y021154D01*
X015851Y021103D01*
X015790Y021042D01*
X015739Y020972D01*
X015700Y020895D01*
X015673Y020813D01*
X015660Y020727D01*
X015660Y020704D01*
X016190Y020704D01*
X016190Y020664D01*
X015660Y020664D01*
X015660Y020641D01*
X015673Y020555D01*
X015700Y020473D01*
X015739Y020396D01*
X015790Y020326D01*
X015851Y020264D01*
X015921Y020214D01*
X015998Y020174D01*
X016004Y020172D01*
X015909Y020133D01*
X015760Y019984D01*
X015680Y019789D01*
X015680Y019695D01*
X014752Y018767D01*
X014752Y018093D01*
X014875Y017970D01*
X015528Y017316D01*
X015385Y017257D01*
X015267Y017139D01*
X015203Y016984D01*
X015203Y016297D01*
X015267Y016143D01*
X015376Y016034D01*
X015258Y015985D01*
X015156Y015884D01*
X015102Y015752D01*
X015102Y015608D01*
X015156Y015476D01*
X015202Y015430D01*
X015156Y015384D01*
X015102Y015252D01*
X015102Y015108D01*
X015156Y014976D01*
X015258Y014875D01*
X015390Y014820D01*
X015525Y014820D01*
X016252Y014093D01*
X016252Y012979D01*
X016156Y012884D01*
X016102Y012752D01*
X016102Y012608D01*
X016156Y012476D01*
X016258Y012375D01*
X016330Y012345D01*
X014375Y010390D01*
X014375Y010390D01*
X014252Y010267D01*
X014252Y009767D01*
X014038Y009554D01*
X013944Y009593D01*
X013161Y009593D01*
X012992Y009522D01*
X012863Y009393D01*
X012793Y009224D01*
X012793Y009041D01*
X012863Y008872D01*
X012992Y008743D01*
X013161Y008673D01*
X013944Y008673D01*
X014113Y008743D01*
X014243Y008872D01*
X014313Y009041D01*
X014313Y009224D01*
X014310Y009231D01*
X014672Y009593D01*
X014672Y010093D01*
X016627Y012048D01*
X016656Y011976D01*
X016758Y011875D01*
X017305Y012068D02*
X017698Y012068D01*
X017698Y012226D02*
X017322Y012226D01*
X017463Y012385D02*
X017698Y012385D01*
X017698Y012543D02*
X017622Y012543D01*
X017672Y012702D02*
X017698Y012702D01*
X017698Y012860D02*
X017672Y012860D01*
X017672Y013019D02*
X017698Y013019D01*
X017698Y013177D02*
X017672Y013177D01*
X017672Y013336D02*
X017698Y013336D01*
X017698Y013494D02*
X017672Y013494D01*
X017672Y013653D02*
X017698Y013653D01*
X017698Y013811D02*
X017672Y013811D01*
X017672Y013970D02*
X017698Y013970D01*
X017698Y014128D02*
X017672Y014128D01*
X017672Y014287D02*
X017698Y014287D01*
X017698Y014445D02*
X017672Y014445D01*
X017672Y014604D02*
X017698Y014604D01*
X017698Y014762D02*
X017672Y014762D01*
X017672Y014921D02*
X017698Y014921D01*
X017698Y015079D02*
X017672Y015079D01*
X017672Y015238D02*
X017698Y015238D01*
X017698Y015396D02*
X017672Y015396D01*
X017672Y015555D02*
X017698Y015555D01*
X017698Y015713D02*
X017672Y015713D01*
X017672Y015872D02*
X017698Y015872D01*
X017698Y016030D02*
X017672Y016030D01*
X017672Y016189D02*
X017698Y016189D01*
X017698Y016347D02*
X017592Y016347D01*
X017698Y016506D02*
X017433Y016506D01*
X017275Y016664D02*
X017698Y016664D01*
X017698Y016823D02*
X017116Y016823D01*
X016958Y016981D02*
X017698Y016981D01*
X017698Y017140D02*
X016799Y017140D01*
X016641Y017298D02*
X017698Y017298D01*
X017698Y017457D02*
X016482Y017457D01*
X016324Y017615D02*
X017698Y017615D01*
X017698Y017774D02*
X016312Y017774D01*
X016219Y017932D02*
X017698Y017932D01*
X017698Y018091D02*
X015348Y018091D01*
X015190Y018249D02*
X015895Y018249D01*
X015750Y018408D02*
X015172Y018408D01*
X015172Y018566D02*
X015685Y018566D01*
X015680Y018725D02*
X015303Y018725D01*
X015462Y018883D02*
X015718Y018883D01*
X015620Y019042D02*
X015818Y019042D01*
X015779Y019200D02*
X015993Y019200D01*
X016426Y019200D02*
X017698Y019200D01*
X017698Y019042D02*
X016602Y019042D01*
X016701Y018883D02*
X017698Y018883D01*
X017698Y018725D02*
X016740Y018725D01*
X016734Y018566D02*
X017698Y018566D01*
X017698Y018408D02*
X016669Y018408D01*
X016524Y018249D02*
X017698Y018249D01*
X017698Y019359D02*
X016634Y019359D01*
X016714Y019517D02*
X017698Y019517D01*
X017698Y019676D02*
X016740Y019676D01*
X016721Y019834D02*
X017698Y019834D01*
X017698Y019993D02*
X016651Y019993D01*
X016467Y020151D02*
X017698Y020151D01*
X017698Y020310D02*
X016613Y020310D01*
X016717Y020468D02*
X017698Y020468D01*
X017698Y020627D02*
X016757Y020627D01*
X016750Y020785D02*
X017698Y020785D01*
X017698Y020944D02*
X016695Y020944D01*
X016569Y021102D02*
X017698Y021102D01*
X017698Y021261D02*
X016536Y021261D01*
X016674Y021419D02*
X017698Y021419D01*
X017698Y021578D02*
X016739Y021578D01*
X016740Y021736D02*
X017698Y021736D01*
X017698Y021895D02*
X016696Y021895D01*
X016590Y022053D02*
X017698Y022053D01*
X017698Y022212D02*
X016454Y022212D01*
X016645Y022370D02*
X017698Y022370D01*
X017698Y022529D02*
X016719Y022529D01*
X016740Y022687D02*
X017698Y022687D01*
X017698Y022846D02*
X016716Y022846D01*
X016639Y023004D02*
X017698Y023004D01*
X017698Y023163D02*
X016439Y023163D01*
X015980Y023163D02*
X013741Y023163D01*
X013900Y023321D02*
X017698Y023321D01*
X017698Y023480D02*
X014058Y023480D01*
X014217Y023638D02*
X017698Y023638D01*
X017698Y023797D02*
X014375Y023797D01*
X014534Y023955D02*
X017698Y023955D01*
X017698Y024114D02*
X014692Y024114D01*
X014851Y024272D02*
X017698Y024272D01*
X017698Y024431D02*
X015009Y024431D01*
X015077Y024498D02*
X015125Y024498D01*
X015303Y024572D01*
X015440Y024708D01*
X015513Y024887D01*
X015513Y025080D01*
X015440Y025258D01*
X015303Y025394D01*
X015125Y025468D01*
X014932Y025468D01*
X014754Y025394D01*
X014617Y025258D01*
X014543Y025080D01*
X014543Y024887D01*
X014617Y024708D01*
X014655Y024671D01*
X013049Y023065D01*
X012836Y023065D01*
X012787Y023015D01*
X012787Y023015D01*
X012753Y023049D01*
X012712Y023073D01*
X012666Y023085D01*
X012523Y023085D01*
X012523Y022470D01*
X012523Y022470D01*
X012523Y021855D01*
X012666Y021855D01*
X012712Y021867D01*
X012753Y021891D01*
X012787Y021924D01*
X012787Y021924D01*
X012836Y021875D01*
X013209Y021875D01*
X013303Y021969D01*
X013303Y022724D01*
X015077Y024498D01*
X015320Y024589D02*
X017698Y024589D01*
X017698Y024748D02*
X015456Y024748D01*
X015513Y024906D02*
X017698Y024906D01*
X017698Y025065D02*
X015513Y025065D01*
X015454Y025223D02*
X017698Y025223D01*
X017698Y025382D02*
X015316Y025382D01*
X014741Y025382D02*
X014339Y025382D01*
X014357Y025368D02*
X014293Y025415D01*
X014222Y025451D01*
X014147Y025476D01*
X014068Y025488D01*
X014028Y025488D01*
X013989Y025488D01*
X013910Y025476D01*
X013835Y025451D01*
X013764Y025415D01*
X013699Y025368D01*
X013643Y025312D01*
X013597Y025248D01*
X013560Y025177D01*
X013536Y025101D01*
X013523Y025023D01*
X013523Y024983D01*
X013523Y024943D01*
X013536Y024865D01*
X013560Y024789D01*
X013597Y024718D01*
X013643Y024654D01*
X013699Y024598D01*
X013764Y024551D01*
X013835Y024515D01*
X013910Y024491D01*
X013989Y024478D01*
X014028Y024478D01*
X014028Y024983D01*
X013523Y024983D01*
X014028Y024983D01*
X014028Y024983D01*
X014028Y024983D01*
X014028Y025488D01*
X014028Y024983D01*
X014028Y024983D01*
X014028Y024478D01*
X014068Y024478D01*
X014147Y024491D01*
X014222Y024515D01*
X014293Y024551D01*
X014357Y024598D01*
X014414Y024654D01*
X014460Y024718D01*
X014496Y024789D01*
X014521Y024865D01*
X014533Y024943D01*
X014533Y024983D01*
X014028Y024983D01*
X014028Y024983D01*
X014533Y024983D01*
X014533Y025023D01*
X014521Y025101D01*
X014496Y025177D01*
X014460Y025248D01*
X014414Y025312D01*
X014357Y025368D01*
X014473Y025223D02*
X014603Y025223D01*
X014543Y025065D02*
X014527Y025065D01*
X014528Y024906D02*
X014543Y024906D01*
X014601Y024748D02*
X014475Y024748D01*
X014574Y024589D02*
X014345Y024589D01*
X014415Y024431D02*
X000942Y024431D01*
X000942Y024589D02*
X002468Y024589D01*
X002524Y024534D02*
X002718Y024453D01*
X002929Y024453D01*
X003124Y024534D01*
X003273Y024683D01*
X003324Y024805D01*
X003374Y024683D01*
X003524Y024534D01*
X003718Y024453D01*
X003929Y024453D01*
X004124Y024534D01*
X004273Y024683D01*
X004354Y024878D01*
X004354Y025089D01*
X004273Y025283D01*
X004124Y025432D01*
X003929Y025513D01*
X003718Y025513D01*
X003524Y025432D01*
X003374Y025283D01*
X003324Y025161D01*
X003273Y025283D01*
X003124Y025432D01*
X002929Y025513D01*
X002718Y025513D01*
X002524Y025432D01*
X002374Y025283D01*
X002294Y025089D01*
X002294Y024878D01*
X002374Y024683D01*
X002524Y024534D01*
X002348Y024748D02*
X000942Y024748D01*
X000942Y024906D02*
X002294Y024906D01*
X002294Y025065D02*
X000942Y025065D01*
X000942Y025223D02*
X002349Y025223D01*
X002473Y025382D02*
X000942Y025382D01*
X000942Y025540D02*
X017698Y025540D01*
X017698Y025699D02*
X000942Y025699D01*
X000942Y025857D02*
X017698Y025857D01*
X017698Y026016D02*
X000942Y026016D01*
X000942Y026174D02*
X017698Y026174D01*
X017698Y026333D02*
X000942Y026333D01*
X000942Y026491D02*
X006094Y026491D01*
X006067Y026502D02*
X006262Y026422D01*
X006472Y026422D01*
X006667Y026502D01*
X006816Y026651D01*
X006897Y026846D01*
X006897Y027057D01*
X006816Y027252D01*
X006667Y027401D01*
X006573Y027440D01*
X006578Y027442D01*
X006655Y027481D01*
X006725Y027532D01*
X006787Y027593D01*
X006837Y027663D01*
X006877Y027741D01*
X006904Y027823D01*
X006917Y027908D01*
X006917Y027932D01*
X006387Y027932D01*
X006387Y027972D01*
X006347Y027972D01*
X006347Y028502D01*
X006324Y028502D01*
X006238Y028488D01*
X006156Y028461D01*
X006079Y028422D01*
X006009Y028371D01*
X005948Y028310D01*
X005897Y028240D01*
X005857Y028163D01*
X005831Y028080D01*
X005817Y027995D01*
X005817Y027972D01*
X006347Y027972D01*
X006347Y027932D01*
X005817Y027932D01*
X005817Y027908D01*
X005831Y027823D01*
X005857Y027741D01*
X005897Y027663D01*
X005948Y027593D01*
X006009Y027532D01*
X006079Y027481D01*
X006156Y027442D01*
X006161Y027440D01*
X006067Y027401D01*
X005918Y027252D01*
X005837Y027057D01*
X005837Y026846D01*
X005918Y026651D01*
X006067Y026502D01*
X005920Y026650D02*
X002730Y026650D01*
X002866Y026686D02*
X002579Y026609D01*
X002281Y026609D01*
X001994Y026686D01*
X001736Y026835D01*
X001526Y027045D01*
X001377Y027303D01*
X001300Y027590D01*
X001300Y027888D01*
X001377Y028175D01*
X001526Y028433D01*
X001736Y028643D01*
X001994Y028792D01*
X002281Y028869D01*
X002579Y028869D01*
X002866Y028792D01*
X003124Y028643D01*
X003334Y028433D01*
X003483Y028175D01*
X003560Y027888D01*
X003560Y027590D01*
X003483Y027303D01*
X003334Y027045D01*
X003124Y026835D01*
X002866Y026686D01*
X003077Y026808D02*
X005853Y026808D01*
X005837Y026967D02*
X003256Y026967D01*
X003380Y027125D02*
X005865Y027125D01*
X005949Y027284D02*
X003472Y027284D01*
X003520Y027442D02*
X006156Y027442D01*
X005942Y027601D02*
X003560Y027601D01*
X003560Y027759D02*
X005851Y027759D01*
X005817Y027918D02*
X003552Y027918D01*
X003510Y028076D02*
X005830Y028076D01*
X005894Y028235D02*
X003449Y028235D01*
X003357Y028393D02*
X006039Y028393D01*
X006347Y028393D02*
X006387Y028393D01*
X006387Y028502D02*
X006387Y027972D01*
X006917Y027972D01*
X006917Y027995D01*
X006904Y028080D01*
X006877Y028163D01*
X006837Y028240D01*
X006787Y028310D01*
X006725Y028371D01*
X006655Y028422D01*
X006578Y028461D01*
X006496Y028488D01*
X006410Y028502D01*
X006387Y028502D01*
X006387Y028235D02*
X006347Y028235D01*
X006347Y028076D02*
X006387Y028076D01*
X006695Y028393D02*
X008795Y028393D01*
X008765Y028371D02*
X008703Y028310D01*
X008653Y028240D01*
X008613Y028163D01*
X008587Y028080D01*
X008573Y027995D01*
X008573Y027972D01*
X009103Y027972D01*
X009103Y028502D01*
X009080Y028502D01*
X008994Y028488D01*
X008912Y028461D01*
X008835Y028422D01*
X008765Y028371D01*
X008650Y028235D02*
X006840Y028235D01*
X006904Y028076D02*
X008586Y028076D01*
X008573Y027932D02*
X008573Y027908D01*
X008587Y027823D01*
X008613Y027741D01*
X008653Y027663D01*
X008703Y027593D01*
X008765Y027532D01*
X008835Y027481D01*
X008912Y027442D01*
X008917Y027440D01*
X008823Y027401D01*
X008674Y027252D01*
X008593Y027057D01*
X008593Y026846D01*
X008674Y026651D01*
X008823Y026502D01*
X009018Y026422D01*
X009228Y026422D01*
X009423Y026502D01*
X009572Y026651D01*
X009653Y026846D01*
X009653Y027057D01*
X009572Y027252D01*
X009423Y027401D01*
X009329Y027440D01*
X009334Y027442D01*
X009411Y027481D01*
X009481Y027532D01*
X009542Y027593D01*
X009593Y027663D01*
X009633Y027741D01*
X009659Y027823D01*
X009673Y027908D01*
X009673Y027932D01*
X009143Y027932D01*
X009143Y027972D01*
X009103Y027972D01*
X009103Y027932D01*
X008573Y027932D01*
X008573Y027918D02*
X006917Y027918D01*
X006883Y027759D02*
X008607Y027759D01*
X008698Y027601D02*
X006792Y027601D01*
X006578Y027442D02*
X008912Y027442D01*
X008705Y027284D02*
X006785Y027284D01*
X006869Y027125D02*
X008621Y027125D01*
X008593Y026967D02*
X006897Y026967D01*
X006881Y026808D02*
X008609Y026808D01*
X008676Y026650D02*
X006814Y026650D01*
X006640Y026491D02*
X008850Y026491D01*
X009396Y026491D02*
X011606Y026491D01*
X011579Y026502D02*
X011773Y026422D01*
X011984Y026422D01*
X012179Y026502D01*
X012328Y026651D01*
X012409Y026846D01*
X012409Y027057D01*
X012328Y027252D01*
X012179Y027401D01*
X012084Y027440D01*
X012090Y027442D01*
X012167Y027481D01*
X012237Y027532D01*
X012298Y027593D01*
X012349Y027663D01*
X012389Y027741D01*
X012415Y027823D01*
X012429Y027908D01*
X012429Y027932D01*
X011899Y027932D01*
X011899Y027972D01*
X011859Y027972D01*
X011859Y028502D01*
X011836Y028502D01*
X011750Y028488D01*
X011668Y028461D01*
X011591Y028422D01*
X011521Y028371D01*
X011459Y028310D01*
X011408Y028240D01*
X011369Y028163D01*
X011342Y028080D01*
X011329Y027995D01*
X011329Y027972D01*
X011859Y027972D01*
X011859Y027932D01*
X011329Y027932D01*
X011329Y027908D01*
X011342Y027823D01*
X011369Y027741D01*
X011408Y027663D01*
X011459Y027593D01*
X011521Y027532D01*
X011591Y027481D01*
X011668Y027442D01*
X011673Y027440D01*
X011579Y027401D01*
X011430Y027252D01*
X011349Y027057D01*
X011349Y026846D01*
X011430Y026651D01*
X011579Y026502D01*
X011431Y026650D02*
X009570Y026650D01*
X009637Y026808D02*
X011365Y026808D01*
X011349Y026967D02*
X009653Y026967D01*
X009625Y027125D02*
X011377Y027125D01*
X011461Y027284D02*
X009541Y027284D01*
X009334Y027442D02*
X011668Y027442D01*
X011454Y027601D02*
X009548Y027601D01*
X009639Y027759D02*
X011363Y027759D01*
X011329Y027918D02*
X009673Y027918D01*
X009673Y027972D02*
X009673Y027995D01*
X009659Y028080D01*
X009633Y028163D01*
X009593Y028240D01*
X009542Y028310D01*
X009481Y028371D01*
X009411Y028422D01*
X009334Y028461D01*
X009252Y028488D01*
X009166Y028502D01*
X009143Y028502D01*
X009143Y027972D01*
X009673Y027972D01*
X009660Y028076D02*
X011342Y028076D01*
X011406Y028235D02*
X009596Y028235D01*
X009451Y028393D02*
X011551Y028393D01*
X011859Y028393D02*
X011899Y028393D01*
X011899Y028502D02*
X011899Y027972D01*
X012429Y027972D01*
X012429Y027995D01*
X012415Y028080D01*
X012389Y028163D01*
X012349Y028240D01*
X012298Y028310D01*
X012237Y028371D01*
X012167Y028422D01*
X012090Y028461D01*
X012008Y028488D01*
X011922Y028502D01*
X011899Y028502D01*
X011899Y028235D02*
X011859Y028235D01*
X011859Y028076D02*
X011899Y028076D01*
X012207Y028393D02*
X015282Y028393D01*
X015305Y028433D02*
X015157Y028175D01*
X015080Y027888D01*
X015080Y027590D01*
X015157Y027303D01*
X015305Y027045D01*
X015516Y026835D01*
X015773Y026686D01*
X016061Y026609D01*
X016358Y026609D01*
X016646Y026686D01*
X016903Y026835D01*
X017114Y027045D01*
X017263Y027303D01*
X017340Y027590D01*
X017340Y027888D01*
X017263Y028175D01*
X017114Y028433D01*
X016903Y028643D01*
X016646Y028792D01*
X016358Y028869D01*
X016061Y028869D01*
X015773Y028792D01*
X015516Y028643D01*
X015305Y028433D01*
X015424Y028552D02*
X003216Y028552D01*
X003008Y028710D02*
X015631Y028710D01*
X016059Y028869D02*
X002581Y028869D01*
X002279Y028869D02*
X000942Y028869D01*
X000942Y029027D02*
X017698Y029027D01*
X017698Y028869D02*
X016360Y028869D01*
X016788Y028710D02*
X017698Y028710D01*
X017698Y028552D02*
X016995Y028552D01*
X017137Y028393D02*
X017698Y028393D01*
X017698Y028235D02*
X017228Y028235D01*
X017289Y028076D02*
X017698Y028076D01*
X017698Y027918D02*
X017332Y027918D01*
X017340Y027759D02*
X017698Y027759D01*
X017698Y027601D02*
X017340Y027601D01*
X017300Y027442D02*
X017698Y027442D01*
X017698Y027284D02*
X017251Y027284D01*
X017160Y027125D02*
X017698Y027125D01*
X017698Y026967D02*
X017035Y026967D01*
X016857Y026808D02*
X017698Y026808D01*
X017698Y026650D02*
X016509Y026650D01*
X015910Y026650D02*
X012326Y026650D01*
X012393Y026808D02*
X015562Y026808D01*
X015384Y026967D02*
X012409Y026967D01*
X012381Y027125D02*
X015259Y027125D01*
X015168Y027284D02*
X012297Y027284D01*
X012090Y027442D02*
X015119Y027442D01*
X015080Y027601D02*
X012304Y027601D01*
X012395Y027759D02*
X015080Y027759D01*
X015088Y027918D02*
X012429Y027918D01*
X012416Y028076D02*
X015130Y028076D01*
X015191Y028235D02*
X012352Y028235D01*
X012152Y026491D02*
X017698Y026491D01*
X017698Y029186D02*
X000942Y029186D01*
X000942Y029228D02*
X017698Y029228D01*
X017698Y000660D01*
X000942Y000660D01*
X000942Y010903D01*
X001100Y010744D01*
X001027Y010670D01*
X001027Y010264D01*
X001314Y009977D01*
X001720Y009977D01*
X002007Y010264D01*
X002007Y010670D01*
X001720Y010957D01*
X001481Y010957D01*
X001461Y010977D01*
X001720Y010977D01*
X002007Y011264D01*
X002007Y011670D01*
X001734Y011943D01*
X001767Y011976D01*
X001822Y012108D01*
X001822Y012252D01*
X001767Y012384D01*
X001665Y012485D01*
X001533Y012540D01*
X001390Y012540D01*
X001258Y012485D01*
X001156Y012384D01*
X001102Y012252D01*
X001102Y012117D01*
X000942Y011957D01*
X000942Y029228D01*
X000942Y028710D02*
X001852Y028710D01*
X001644Y028552D02*
X000942Y028552D01*
X000942Y028393D02*
X001503Y028393D01*
X001411Y028235D02*
X000942Y028235D01*
X000942Y028076D02*
X001350Y028076D01*
X001308Y027918D02*
X000942Y027918D01*
X000942Y027759D02*
X001300Y027759D01*
X001300Y027601D02*
X000942Y027601D01*
X000942Y027442D02*
X001340Y027442D01*
X001388Y027284D02*
X000942Y027284D01*
X000942Y027125D02*
X001480Y027125D01*
X001605Y026967D02*
X000942Y026967D01*
X000942Y026808D02*
X001783Y026808D01*
X002130Y026650D02*
X000942Y026650D01*
X000942Y024272D02*
X014257Y024272D01*
X014098Y024114D02*
X000942Y024114D01*
X000942Y023955D02*
X013940Y023955D01*
X013781Y023797D02*
X000942Y023797D01*
X000942Y023638D02*
X013623Y023638D01*
X013464Y023480D02*
X001905Y023480D01*
X001943Y023464D02*
X001748Y023545D01*
X001537Y023545D01*
X001342Y023464D01*
X001193Y023315D01*
X001113Y023120D01*
X001113Y022909D01*
X001193Y022714D01*
X001342Y022565D01*
X001465Y022515D01*
X001342Y022464D01*
X001193Y022315D01*
X001113Y022120D01*
X001113Y021909D01*
X001193Y021714D01*
X001342Y021565D01*
X001465Y021515D01*
X001342Y021464D01*
X001193Y021315D01*
X001113Y021120D01*
X001113Y020909D01*
X001193Y020714D01*
X001342Y020565D01*
X001465Y020515D01*
X001342Y020464D01*
X001193Y020315D01*
X001113Y020120D01*
X001113Y019909D01*
X001193Y019714D01*
X001342Y019565D01*
X001465Y019515D01*
X001342Y019464D01*
X001193Y019315D01*
X001113Y019120D01*
X001113Y018909D01*
X001193Y018714D01*
X001342Y018565D01*
X001437Y018526D01*
X001432Y018524D01*
X001354Y018485D01*
X001284Y018434D01*
X001223Y018373D01*
X001172Y018303D01*
X001133Y018226D01*
X001106Y018143D01*
X001093Y018058D01*
X001093Y018035D01*
X001623Y018035D01*
X001623Y017995D01*
X001093Y017995D01*
X001093Y017971D01*
X001106Y017886D01*
X001133Y017804D01*
X001172Y017726D01*
X001223Y017656D01*
X001284Y017595D01*
X001354Y017544D01*
X001432Y017505D01*
X001514Y017478D01*
X001599Y017465D01*
X001623Y017465D01*
X001623Y017995D01*
X001663Y017995D01*
X001663Y018035D01*
X002193Y018035D01*
X002193Y018058D01*
X002179Y018143D01*
X002152Y018226D01*
X002113Y018303D01*
X002062Y018373D01*
X002001Y018434D01*
X001931Y018485D01*
X001854Y018524D01*
X001848Y018526D01*
X001943Y018565D01*
X002092Y018714D01*
X002173Y018909D01*
X002173Y019120D01*
X002092Y019315D01*
X001943Y019464D01*
X001820Y019515D01*
X001943Y019565D01*
X002092Y019714D01*
X002173Y019909D01*
X002173Y020120D01*
X002092Y020315D01*
X001943Y020464D01*
X001820Y020515D01*
X001943Y020565D01*
X002092Y020714D01*
X002173Y020909D01*
X002173Y021120D01*
X002092Y021315D01*
X001943Y021464D01*
X001820Y021515D01*
X001943Y021565D01*
X002092Y021714D01*
X002173Y021909D01*
X002173Y022120D01*
X002092Y022315D01*
X001943Y022464D01*
X001820Y022515D01*
X001943Y022565D01*
X002092Y022714D01*
X002173Y022909D01*
X002173Y023120D01*
X002092Y023315D01*
X001943Y023464D01*
X002086Y023321D02*
X002306Y023321D01*
X002252Y023163D02*
X002155Y023163D01*
X002173Y023004D02*
X002252Y023004D01*
X002252Y022846D02*
X002146Y022846D01*
X002065Y022687D02*
X002252Y022687D01*
X002252Y022529D02*
X001854Y022529D01*
X002037Y022370D02*
X002252Y022370D01*
X002252Y022212D02*
X002135Y022212D01*
X002173Y022053D02*
X002252Y022053D01*
X002252Y021895D02*
X002167Y021895D01*
X002101Y021736D02*
X002252Y021736D01*
X002252Y021578D02*
X001955Y021578D01*
X001988Y021419D02*
X002252Y021419D01*
X002252Y021261D02*
X002114Y021261D01*
X002173Y021102D02*
X002252Y021102D01*
X002252Y020944D02*
X002173Y020944D01*
X002121Y020785D02*
X002252Y020785D01*
X002252Y020627D02*
X002004Y020627D01*
X001933Y020468D02*
X002252Y020468D01*
X002252Y020310D02*
X002094Y020310D01*
X002160Y020151D02*
X002252Y020151D01*
X002252Y019993D02*
X002173Y019993D01*
X002142Y019834D02*
X002252Y019834D01*
X002252Y019676D02*
X002053Y019676D01*
X002252Y019517D02*
X001826Y019517D01*
X002048Y019359D02*
X002252Y019359D01*
X002252Y019200D02*
X002140Y019200D01*
X002173Y019042D02*
X002252Y019042D01*
X002252Y018883D02*
X002162Y018883D01*
X002096Y018725D02*
X002252Y018725D01*
X002252Y018566D02*
X001944Y018566D01*
X002028Y018408D02*
X002252Y018408D01*
X002252Y018249D02*
X002141Y018249D01*
X002187Y018091D02*
X002252Y018091D01*
X002193Y017995D02*
X001663Y017995D01*
X001663Y017465D01*
X001686Y017465D01*
X001771Y017478D01*
X001854Y017505D01*
X001931Y017544D01*
X002001Y017595D01*
X002062Y017656D01*
X002113Y017726D01*
X002152Y017804D01*
X002179Y017886D01*
X002193Y017971D01*
X002193Y017995D01*
X002186Y017932D02*
X002252Y017932D01*
X002252Y017774D02*
X002137Y017774D01*
X002100Y017615D02*
X002021Y017615D01*
X001941Y017457D02*
X000942Y017457D01*
X000942Y017615D02*
X001264Y017615D01*
X001148Y017774D02*
X000942Y017774D01*
X000942Y017932D02*
X001099Y017932D01*
X001098Y018091D02*
X000942Y018091D01*
X000942Y018249D02*
X001145Y018249D01*
X001258Y018408D02*
X000942Y018408D01*
X000942Y018566D02*
X001342Y018566D01*
X001189Y018725D02*
X000942Y018725D01*
X000942Y018883D02*
X001123Y018883D01*
X001113Y019042D02*
X000942Y019042D01*
X000942Y019200D02*
X001146Y019200D01*
X001237Y019359D02*
X000942Y019359D01*
X000942Y019517D02*
X001459Y019517D01*
X001232Y019676D02*
X000942Y019676D01*
X000942Y019834D02*
X001144Y019834D01*
X001113Y019993D02*
X000942Y019993D01*
X000942Y020151D02*
X001125Y020151D01*
X001191Y020310D02*
X000942Y020310D01*
X000942Y020468D02*
X001352Y020468D01*
X001281Y020627D02*
X000942Y020627D01*
X000942Y020785D02*
X001164Y020785D01*
X001113Y020944D02*
X000942Y020944D01*
X000942Y021102D02*
X001113Y021102D01*
X001171Y021261D02*
X000942Y021261D01*
X000942Y021419D02*
X001298Y021419D01*
X001330Y021578D02*
X000942Y021578D01*
X000942Y021736D02*
X001184Y021736D01*
X001119Y021895D02*
X000942Y021895D01*
X000942Y022053D02*
X001113Y022053D01*
X001151Y022212D02*
X000942Y022212D01*
X000942Y022370D02*
X001249Y022370D01*
X001431Y022529D02*
X000942Y022529D01*
X000942Y022687D02*
X001221Y022687D01*
X001139Y022846D02*
X000942Y022846D01*
X000942Y023004D02*
X001113Y023004D01*
X001130Y023163D02*
X000942Y023163D01*
X000942Y023321D02*
X001200Y023321D01*
X001380Y023480D02*
X000942Y023480D01*
X002672Y022846D02*
X007499Y022846D01*
X007464Y022712D02*
X007271Y022712D01*
X007092Y022638D01*
X006956Y022502D01*
X006882Y022324D01*
X006882Y022131D01*
X006956Y021953D01*
X007092Y021816D01*
X007271Y021742D01*
X007464Y021742D01*
X007642Y021816D01*
X007778Y021953D01*
X007852Y022131D01*
X007852Y022324D01*
X007778Y022502D01*
X007642Y022638D01*
X007464Y022712D01*
X007524Y022687D02*
X007658Y022687D01*
X007752Y022529D02*
X007816Y022529D01*
X007833Y022370D02*
X007975Y022370D01*
X007852Y022212D02*
X008133Y022212D01*
X008292Y022053D02*
X007820Y022053D01*
X007720Y021895D02*
X008450Y021895D01*
X008609Y021736D02*
X002672Y021736D01*
X002672Y021578D02*
X008767Y021578D01*
X008926Y021419D02*
X008232Y021419D01*
X008267Y021384D02*
X008165Y021485D01*
X008033Y021540D01*
X007890Y021540D01*
X007758Y021485D01*
X007656Y021384D01*
X007602Y021252D01*
X007602Y021108D01*
X007656Y020976D01*
X007742Y020890D01*
X003375Y020890D01*
X003252Y020767D01*
X003252Y017101D01*
X003203Y016984D01*
X003203Y016297D01*
X003267Y016143D01*
X003385Y016025D01*
X003539Y015961D01*
X003707Y015961D01*
X003861Y016025D01*
X003979Y016143D01*
X004043Y016297D01*
X004043Y016984D01*
X003979Y017139D01*
X003861Y017257D01*
X003707Y017321D01*
X003672Y017321D01*
X003672Y020470D01*
X007875Y020470D01*
X008330Y020015D01*
X008258Y019985D01*
X008156Y019884D01*
X008102Y019752D01*
X008102Y019608D01*
X008156Y019476D01*
X008258Y019375D01*
X008390Y019320D01*
X008525Y019320D01*
X010528Y017316D01*
X010385Y017257D01*
X010267Y017139D01*
X010203Y016984D01*
X010203Y016297D01*
X010267Y016143D01*
X010385Y016025D01*
X010539Y015961D01*
X010707Y015961D01*
X010861Y016025D01*
X010979Y016143D01*
X011043Y016297D01*
X011043Y016802D01*
X011203Y016642D01*
X011203Y016297D01*
X011267Y016143D01*
X011385Y016025D01*
X011539Y015961D01*
X011707Y015961D01*
X011861Y016025D01*
X011979Y016143D01*
X012043Y016297D01*
X012043Y016802D01*
X012203Y016642D01*
X012203Y016297D01*
X012267Y016143D01*
X012385Y016025D01*
X012539Y015961D01*
X012707Y015961D01*
X012861Y016025D01*
X012979Y016143D01*
X013043Y016297D01*
X013043Y016984D01*
X012979Y017139D01*
X012861Y017257D01*
X012707Y017321D01*
X012539Y017321D01*
X012385Y017257D01*
X012283Y017155D01*
X008322Y021117D01*
X008322Y021252D01*
X008267Y021384D01*
X008318Y021261D02*
X009084Y021261D01*
X009243Y021102D02*
X008336Y021102D01*
X008495Y020944D02*
X009401Y020944D01*
X009560Y020785D02*
X008653Y020785D01*
X008812Y020627D02*
X009718Y020627D01*
X009877Y020468D02*
X008970Y020468D01*
X009129Y020310D02*
X010035Y020310D01*
X010194Y020151D02*
X009288Y020151D01*
X009446Y019993D02*
X010352Y019993D01*
X010511Y019834D02*
X009605Y019834D01*
X009763Y019676D02*
X010669Y019676D01*
X010752Y019517D02*
X009922Y019517D01*
X010080Y019359D02*
X010752Y019359D01*
X010752Y019200D02*
X010239Y019200D01*
X010397Y019042D02*
X010803Y019042D01*
X010556Y018883D02*
X014252Y018883D01*
X014252Y018725D02*
X010714Y018725D01*
X010873Y018566D02*
X014252Y018566D01*
X014252Y018408D02*
X011031Y018408D01*
X011190Y018249D02*
X014252Y018249D01*
X014252Y018091D02*
X011348Y018091D01*
X011507Y017932D02*
X014252Y017932D01*
X014252Y017774D02*
X011665Y017774D01*
X011824Y017615D02*
X014252Y017615D01*
X014252Y017457D02*
X011982Y017457D01*
X012141Y017298D02*
X012485Y017298D01*
X012761Y017298D02*
X013485Y017298D01*
X013539Y017321D02*
X013385Y017257D01*
X013267Y017139D01*
X013203Y016984D01*
X013203Y016297D01*
X013226Y016241D01*
X011875Y014890D01*
X010181Y014890D01*
X010267Y014976D01*
X010322Y015108D01*
X010322Y015252D01*
X010267Y015384D01*
X010221Y015430D01*
X010267Y015476D01*
X010322Y015608D01*
X010322Y015752D01*
X010267Y015884D01*
X010165Y015985D01*
X010033Y016040D01*
X009890Y016040D01*
X009867Y016030D01*
X009979Y016143D01*
X010043Y016297D01*
X010043Y016984D01*
X009979Y017139D01*
X009861Y017257D01*
X009707Y017321D01*
X009539Y017321D01*
X009385Y017257D01*
X009267Y017139D01*
X009203Y016984D01*
X009203Y016297D01*
X009267Y016143D01*
X009385Y016025D01*
X009539Y015961D01*
X009707Y015961D01*
X009752Y015979D01*
X009662Y015890D01*
X005672Y015890D01*
X005672Y015961D01*
X005707Y015961D01*
X005861Y016025D01*
X005979Y016143D01*
X006043Y016297D01*
X006043Y016802D01*
X006203Y016642D01*
X006203Y016297D01*
X006267Y016143D01*
X006385Y016025D01*
X006539Y015961D01*
X006707Y015961D01*
X006861Y016025D01*
X006979Y016143D01*
X007043Y016297D01*
X007043Y016984D01*
X006979Y017139D01*
X006861Y017257D01*
X006707Y017321D01*
X006539Y017321D01*
X006385Y017257D01*
X006283Y017155D01*
X005402Y018036D01*
X005461Y018060D01*
X005597Y018197D01*
X005671Y018375D01*
X005671Y018568D01*
X005597Y018746D01*
X005461Y018883D01*
X005282Y018956D01*
X005089Y018956D01*
X004929Y018890D01*
X004875Y018890D01*
X004871Y018887D01*
X004867Y018887D01*
X004810Y018826D01*
X004752Y018767D01*
X004752Y018763D01*
X004749Y018759D01*
X004751Y018689D01*
X004701Y018568D01*
X004701Y018375D01*
X004752Y018253D01*
X004752Y018093D01*
X004875Y017970D01*
X005528Y017316D01*
X005385Y017257D01*
X005267Y017139D01*
X005203Y016984D01*
X005203Y016297D01*
X005245Y016196D01*
X005235Y016167D01*
X005252Y016132D01*
X005252Y015593D01*
X005375Y015470D01*
X009662Y015470D01*
X009702Y015430D01*
X009662Y015390D01*
X004672Y015390D01*
X004672Y015961D01*
X004707Y015961D01*
X004861Y016025D01*
X004979Y016143D01*
X005043Y016297D01*
X005043Y016984D01*
X004979Y017139D01*
X004861Y017257D01*
X004707Y017321D01*
X004539Y017321D01*
X004385Y017257D01*
X004267Y017139D01*
X004203Y016984D01*
X004203Y016297D01*
X004245Y016196D01*
X004235Y016167D01*
X004252Y016132D01*
X004252Y015093D01*
X004375Y014970D01*
X008742Y014970D01*
X008656Y014884D01*
X008602Y014752D01*
X008602Y014608D01*
X008656Y014476D01*
X008758Y014375D01*
X008890Y014320D01*
X009033Y014320D01*
X009165Y014375D01*
X009261Y014470D01*
X012049Y014470D01*
X012172Y014593D01*
X013539Y015961D01*
X013539Y015961D01*
X013707Y015961D01*
X013861Y016025D01*
X013979Y016143D01*
X014043Y016297D01*
X014043Y016984D01*
X013979Y017139D01*
X013861Y017257D01*
X013707Y017321D01*
X013539Y017321D01*
X013761Y017298D02*
X014252Y017298D01*
X014252Y017140D02*
X013978Y017140D01*
X014043Y016981D02*
X014203Y016981D01*
X014203Y016823D02*
X014043Y016823D01*
X014043Y016664D02*
X014203Y016664D01*
X014203Y016506D02*
X014043Y016506D01*
X014043Y016347D02*
X014203Y016347D01*
X014248Y016189D02*
X013998Y016189D01*
X013866Y016030D02*
X014380Y016030D01*
X014866Y016030D02*
X015366Y016030D01*
X015248Y016189D02*
X014998Y016189D01*
X015043Y016347D02*
X015203Y016347D01*
X015203Y016506D02*
X015043Y016506D01*
X015043Y016664D02*
X015203Y016664D01*
X015203Y016823D02*
X015043Y016823D01*
X015043Y016981D02*
X015203Y016981D01*
X015268Y017140D02*
X014978Y017140D01*
X014761Y017298D02*
X015485Y017298D01*
X015388Y017457D02*
X014672Y017457D01*
X014672Y017615D02*
X015230Y017615D01*
X015071Y017774D02*
X014672Y017774D01*
X014672Y017932D02*
X014913Y017932D01*
X014754Y018091D02*
X014672Y018091D01*
X014672Y018249D02*
X014752Y018249D01*
X014752Y018408D02*
X014672Y018408D01*
X014672Y018566D02*
X014752Y018566D01*
X014752Y018725D02*
X014672Y018725D01*
X014672Y018883D02*
X014868Y018883D01*
X015026Y019042D02*
X014672Y019042D01*
X014672Y019200D02*
X015185Y019200D01*
X015343Y019359D02*
X014672Y019359D01*
X014672Y019517D02*
X015502Y019517D01*
X015660Y019676D02*
X014672Y019676D01*
X014672Y019834D02*
X015698Y019834D01*
X015769Y019993D02*
X014774Y019993D01*
X014822Y020151D02*
X015952Y020151D01*
X015806Y020310D02*
X014798Y020310D01*
X014683Y020468D02*
X015702Y020468D01*
X015662Y020627D02*
X015205Y020627D01*
X015364Y020785D02*
X015669Y020785D01*
X015725Y020944D02*
X015522Y020944D01*
X015681Y021102D02*
X015850Y021102D01*
X015839Y021261D02*
X015883Y021261D01*
X015562Y021578D02*
X012309Y021578D01*
X012322Y021608D02*
X012267Y021476D01*
X012165Y021375D01*
X012033Y021320D01*
X011890Y021320D01*
X011758Y021375D01*
X011656Y021476D01*
X011602Y021608D01*
X011602Y021752D01*
X011653Y021875D01*
X011336Y021875D01*
X011251Y021960D01*
X011165Y021875D01*
X011033Y021820D01*
X010890Y021820D01*
X010758Y021875D01*
X010656Y021976D01*
X010602Y022108D01*
X010602Y022252D01*
X010656Y022384D01*
X010758Y022485D01*
X010890Y022540D01*
X011033Y022540D01*
X011165Y022485D01*
X011243Y022408D01*
X011243Y022971D01*
X011336Y023065D01*
X011709Y023065D01*
X011773Y023001D01*
X011836Y023065D01*
X012209Y023065D01*
X012258Y023015D01*
X012259Y023015D01*
X012292Y023049D01*
X012333Y023073D01*
X012379Y023085D01*
X012523Y023085D01*
X012523Y022470D01*
X012523Y022470D01*
X012523Y021855D01*
X012379Y021855D01*
X012333Y021867D01*
X012292Y021891D01*
X012259Y021924D01*
X012258Y021924D01*
X012242Y021908D01*
X012267Y021884D01*
X012322Y021752D01*
X012322Y021608D01*
X012322Y021736D02*
X015680Y021736D01*
X015723Y021895D02*
X013229Y021895D01*
X013303Y022053D02*
X015829Y022053D01*
X015965Y022212D02*
X013303Y022212D01*
X013303Y022370D02*
X015774Y022370D01*
X015700Y022529D02*
X013303Y022529D01*
X013303Y022687D02*
X015680Y022687D01*
X015703Y022846D02*
X013424Y022846D01*
X013583Y023004D02*
X015780Y023004D01*
X015404Y021419D02*
X012210Y021419D01*
X012270Y020944D02*
X012275Y020944D01*
X011775Y020944D02*
X011770Y020944D01*
X011713Y021419D02*
X009519Y021419D01*
X009361Y021578D02*
X011614Y021578D01*
X011602Y021736D02*
X009202Y021736D01*
X009044Y021895D02*
X010738Y021895D01*
X010624Y022053D02*
X008885Y022053D01*
X008727Y022212D02*
X010602Y022212D01*
X010651Y022370D02*
X008568Y022370D01*
X008410Y022529D02*
X010862Y022529D01*
X011061Y022529D02*
X011243Y022529D01*
X011243Y022687D02*
X008251Y022687D01*
X008093Y022846D02*
X011243Y022846D01*
X011275Y023004D02*
X007934Y023004D01*
X007776Y023163D02*
X013147Y023163D01*
X013306Y023321D02*
X007617Y023321D01*
X007210Y022687D02*
X005524Y022687D01*
X005464Y022712D02*
X005271Y022712D01*
X005092Y022638D01*
X004956Y022502D01*
X004882Y022324D01*
X004882Y022131D01*
X004956Y021953D01*
X005092Y021816D01*
X005271Y021742D01*
X005464Y021742D01*
X005642Y021816D01*
X005778Y021953D01*
X005852Y022131D01*
X005852Y022324D01*
X005778Y022502D01*
X005642Y022638D01*
X005464Y022712D01*
X005210Y022687D02*
X002672Y022687D01*
X002672Y022529D02*
X004982Y022529D01*
X004901Y022370D02*
X002672Y022370D01*
X002672Y022212D02*
X004882Y022212D01*
X004914Y022053D02*
X002672Y022053D01*
X002672Y021895D02*
X005014Y021895D01*
X005720Y021895D02*
X007014Y021895D01*
X006914Y022053D02*
X005820Y022053D01*
X005852Y022212D02*
X006882Y022212D01*
X006901Y022370D02*
X005833Y022370D01*
X005752Y022529D02*
X006982Y022529D01*
X007691Y021419D02*
X002672Y021419D01*
X002672Y021261D02*
X007605Y021261D01*
X007604Y021102D02*
X002672Y021102D01*
X002672Y020944D02*
X007689Y020944D01*
X007877Y020468D02*
X003672Y020468D01*
X003672Y020310D02*
X008035Y020310D01*
X008194Y020151D02*
X003672Y020151D01*
X003672Y019993D02*
X008275Y019993D01*
X008136Y019834D02*
X007900Y019834D01*
X007877Y019857D02*
X007813Y019903D01*
X007742Y019939D01*
X007666Y019964D01*
X007588Y019976D01*
X007548Y019976D01*
X007508Y019976D01*
X007430Y019964D01*
X007354Y019939D01*
X007283Y019903D01*
X007219Y019857D01*
X007163Y019800D01*
X007116Y019736D01*
X007080Y019665D01*
X007056Y019590D01*
X007043Y019511D01*
X007043Y019471D01*
X007043Y019432D01*
X007056Y019353D01*
X007080Y019277D01*
X007116Y019207D01*
X007163Y019142D01*
X007219Y019086D01*
X007283Y019039D01*
X007354Y019003D01*
X007430Y018979D01*
X007508Y018966D01*
X007548Y018966D01*
X007548Y019471D01*
X007548Y019471D01*
X007043Y019471D01*
X007548Y019471D01*
X007548Y019471D01*
X007548Y018966D01*
X007588Y018966D01*
X007666Y018979D01*
X007742Y019003D01*
X007813Y019039D01*
X007877Y019086D01*
X007933Y019142D01*
X007980Y019207D01*
X008016Y019277D01*
X008041Y019353D01*
X008053Y019432D01*
X008053Y019471D01*
X007548Y019471D01*
X007548Y019471D01*
X007548Y019976D01*
X007548Y019471D01*
X007548Y019471D01*
X008053Y019471D01*
X008053Y019511D01*
X008041Y019590D01*
X008016Y019665D01*
X007980Y019736D01*
X007933Y019800D01*
X007877Y019857D01*
X008011Y019676D02*
X008102Y019676D01*
X008139Y019517D02*
X008052Y019517D01*
X008042Y019359D02*
X008297Y019359D01*
X007975Y019200D02*
X008645Y019200D01*
X008803Y019042D02*
X007816Y019042D01*
X007822Y018883D02*
X008962Y018883D01*
X009120Y018725D02*
X007968Y018725D01*
X007959Y018746D02*
X007823Y018883D01*
X007645Y018956D01*
X007452Y018956D01*
X007273Y018883D01*
X007137Y018746D01*
X007063Y018568D01*
X007063Y018375D01*
X007137Y018197D01*
X007252Y018082D01*
X007252Y017101D01*
X007203Y016984D01*
X007203Y016297D01*
X007267Y016143D01*
X007385Y016025D01*
X007539Y015961D01*
X007707Y015961D01*
X007861Y016025D01*
X007979Y016143D01*
X008043Y016297D01*
X008043Y016984D01*
X007979Y017139D01*
X007861Y017257D01*
X007707Y017321D01*
X007672Y017321D01*
X007672Y017997D01*
X007823Y018060D01*
X007959Y018197D01*
X008033Y018375D01*
X008033Y018568D01*
X007959Y018746D01*
X008033Y018566D02*
X009279Y018566D01*
X009437Y018408D02*
X008033Y018408D01*
X007981Y018249D02*
X009596Y018249D01*
X009754Y018091D02*
X007853Y018091D01*
X007672Y017932D02*
X009913Y017932D01*
X010071Y017774D02*
X007672Y017774D01*
X007672Y017615D02*
X010230Y017615D01*
X010388Y017457D02*
X007672Y017457D01*
X007761Y017298D02*
X008434Y017298D01*
X008454Y017308D02*
X008392Y017277D01*
X008336Y017236D01*
X008287Y017187D01*
X008247Y017131D01*
X008215Y017070D01*
X008194Y017004D01*
X008183Y016935D01*
X008183Y016641D01*
X008623Y016641D01*
X008623Y016641D01*
X008623Y017341D01*
X008588Y017341D01*
X008520Y017330D01*
X008454Y017308D01*
X008623Y017298D02*
X008623Y017298D01*
X008623Y017341D02*
X008658Y017341D01*
X008726Y017330D01*
X008792Y017308D01*
X008854Y017277D01*
X008910Y017236D01*
X008959Y017187D01*
X008999Y017131D01*
X009031Y017070D01*
X009052Y017004D01*
X009063Y016935D01*
X009063Y016641D01*
X008623Y016641D01*
X008623Y017341D01*
X008812Y017298D02*
X009485Y017298D01*
X009268Y017140D02*
X008993Y017140D01*
X009056Y016981D02*
X009203Y016981D01*
X009203Y016823D02*
X009063Y016823D01*
X009063Y016664D02*
X009203Y016664D01*
X009063Y016641D02*
X009063Y016346D01*
X009052Y016278D01*
X009031Y016212D01*
X008999Y016150D01*
X008959Y016094D01*
X008910Y016045D01*
X008854Y016004D01*
X008792Y015973D01*
X008726Y015951D01*
X008658Y015941D01*
X008623Y015941D01*
X008623Y016641D01*
X008623Y016641D01*
X008623Y016641D01*
X009063Y016641D01*
X009063Y016506D02*
X009203Y016506D01*
X009203Y016347D02*
X009063Y016347D01*
X009019Y016189D02*
X009248Y016189D01*
X009380Y016030D02*
X008889Y016030D01*
X008623Y016030D02*
X008623Y016030D01*
X008623Y015941D02*
X008623Y016641D01*
X008183Y016641D01*
X008183Y016346D01*
X008194Y016278D01*
X008215Y016212D01*
X008247Y016150D01*
X008287Y016094D01*
X008336Y016045D01*
X008392Y016004D01*
X008454Y015973D01*
X008520Y015951D01*
X008588Y015941D01*
X008623Y015941D01*
X008623Y016189D02*
X008623Y016189D01*
X008623Y016347D02*
X008623Y016347D01*
X008623Y016506D02*
X008623Y016506D01*
X008623Y016641D02*
X008623Y016641D01*
X008623Y016664D02*
X008623Y016664D01*
X008623Y016823D02*
X008623Y016823D01*
X008623Y016981D02*
X008623Y016981D01*
X008623Y017140D02*
X008623Y017140D01*
X008253Y017140D02*
X007978Y017140D01*
X008043Y016981D02*
X008190Y016981D01*
X008183Y016823D02*
X008043Y016823D01*
X008043Y016664D02*
X008183Y016664D01*
X008183Y016506D02*
X008043Y016506D01*
X008043Y016347D02*
X008183Y016347D01*
X008227Y016189D02*
X007998Y016189D01*
X007866Y016030D02*
X008357Y016030D01*
X008693Y014921D02*
X002172Y014921D01*
X002172Y015079D02*
X004266Y015079D01*
X004252Y015238D02*
X002172Y015238D01*
X002172Y015396D02*
X004252Y015396D01*
X004252Y015555D02*
X002172Y015555D01*
X002292Y015713D02*
X004252Y015713D01*
X004252Y015872D02*
X002450Y015872D01*
X002203Y016347D02*
X001672Y016347D01*
X001672Y016189D02*
X002173Y016189D01*
X002015Y016030D02*
X001672Y016030D01*
X001672Y015872D02*
X001856Y015872D01*
X001752Y015713D02*
X001672Y015713D01*
X001672Y015555D02*
X001752Y015555D01*
X001752Y015396D02*
X001672Y015396D01*
X001672Y015238D02*
X001752Y015238D01*
X001752Y015079D02*
X001672Y015079D01*
X001672Y014921D02*
X001752Y014921D01*
X001752Y014762D02*
X001672Y014762D01*
X001672Y014604D02*
X001752Y014604D01*
X001752Y014445D02*
X001672Y014445D01*
X001672Y014287D02*
X001752Y014287D01*
X001752Y014128D02*
X001672Y014128D01*
X001672Y013970D02*
X001752Y013970D01*
X001752Y013811D02*
X001672Y013811D01*
X001672Y013653D02*
X001752Y013653D01*
X001752Y013494D02*
X001672Y013494D01*
X001672Y013336D02*
X001752Y013336D01*
X001485Y012860D02*
X000942Y012860D01*
X000942Y012702D02*
X001643Y012702D01*
X001802Y012543D02*
X000942Y012543D01*
X000942Y012385D02*
X001157Y012385D01*
X001102Y012226D02*
X000942Y012226D01*
X000942Y012068D02*
X001052Y012068D01*
X001768Y011909D02*
X002265Y011909D01*
X002314Y011957D02*
X002027Y011670D01*
X002027Y011264D01*
X002314Y010977D01*
X002720Y010977D01*
X003007Y011264D01*
X003007Y011670D01*
X002720Y011957D01*
X002314Y011957D01*
X002277Y012068D02*
X001805Y012068D01*
X001822Y012226D02*
X002119Y012226D01*
X001960Y012385D02*
X001766Y012385D01*
X001927Y011751D02*
X002107Y011751D01*
X002027Y011592D02*
X002007Y011592D01*
X002007Y011434D02*
X002027Y011434D01*
X002027Y011275D02*
X002007Y011275D01*
X001859Y011117D02*
X002175Y011117D01*
X002314Y010957D02*
X002027Y010670D01*
X002027Y010264D01*
X002314Y009977D01*
X002720Y009977D01*
X003007Y010264D01*
X003007Y010670D01*
X002720Y010957D01*
X002314Y010957D01*
X002156Y010800D02*
X001878Y010800D01*
X002007Y010641D02*
X002027Y010641D01*
X002027Y010483D02*
X002007Y010483D01*
X002007Y010324D02*
X002027Y010324D01*
X002126Y010166D02*
X001908Y010166D01*
X001749Y010007D02*
X002284Y010007D01*
X002314Y009957D02*
X002027Y009670D01*
X002027Y009264D01*
X002314Y008977D01*
X002720Y008977D01*
X003007Y009264D01*
X003007Y009670D01*
X002720Y009957D01*
X002314Y009957D01*
X002205Y009849D02*
X001829Y009849D01*
X001720Y009957D02*
X001314Y009957D01*
X001027Y009670D01*
X001027Y009264D01*
X001314Y008977D01*
X001720Y008977D01*
X002007Y009264D01*
X002007Y009670D01*
X001720Y009957D01*
X001987Y009690D02*
X002046Y009690D01*
X002027Y009532D02*
X002007Y009532D01*
X002007Y009373D02*
X002027Y009373D01*
X002077Y009215D02*
X001957Y009215D01*
X001798Y009056D02*
X002235Y009056D01*
X002305Y008977D02*
X002007Y008679D01*
X002007Y008487D01*
X002497Y008487D01*
X002497Y008977D01*
X002305Y008977D01*
X002226Y008898D02*
X001780Y008898D01*
X001938Y008739D02*
X002067Y008739D01*
X002007Y008581D02*
X002007Y008581D01*
X002007Y008422D02*
X002007Y008422D01*
X002006Y008264D02*
X002007Y008264D01*
X002158Y008105D02*
X001847Y008105D01*
X001672Y007947D02*
X002431Y007947D01*
X002708Y007630D02*
X014137Y007630D01*
X014137Y007675D02*
X014137Y007409D01*
X014205Y007152D01*
X014338Y006922D01*
X014526Y006734D01*
X014757Y006601D01*
X015014Y006532D01*
X015280Y006532D01*
X015536Y006601D01*
X015767Y006734D01*
X015955Y006922D01*
X016088Y007152D01*
X016157Y007409D01*
X016157Y007675D01*
X016088Y007932D01*
X015955Y008162D01*
X015767Y008350D01*
X015536Y008483D01*
X015280Y008552D01*
X015014Y008552D01*
X014757Y008483D01*
X014526Y008350D01*
X014338Y008162D01*
X014205Y007932D01*
X014137Y007675D01*
X014167Y007788D02*
X002867Y007788D01*
X003025Y007947D02*
X005376Y007947D01*
X005417Y007906D02*
X005571Y007843D01*
X005738Y007843D01*
X005892Y007906D01*
X006011Y008025D01*
X006074Y008179D01*
X006074Y008866D01*
X006011Y009020D01*
X005892Y009139D01*
X005738Y009203D01*
X005571Y009203D01*
X005417Y009139D01*
X005298Y009020D01*
X005234Y008866D01*
X005234Y008179D01*
X005298Y008025D01*
X005417Y007906D01*
X005265Y008105D02*
X003184Y008105D01*
X003342Y008264D02*
X005234Y008264D01*
X005234Y008422D02*
X003501Y008422D01*
X003659Y008581D02*
X005234Y008581D01*
X005234Y008739D02*
X003672Y008739D01*
X003672Y008898D02*
X005247Y008898D01*
X005334Y009056D02*
X003672Y009056D01*
X003672Y009215D02*
X007630Y009215D01*
X007472Y009373D02*
X003672Y009373D01*
X003672Y009532D02*
X007313Y009532D01*
X007155Y009690D02*
X003672Y009690D01*
X003672Y009849D02*
X006996Y009849D01*
X007273Y010166D02*
X014252Y010166D01*
X014252Y010007D02*
X007432Y010007D01*
X007590Y009849D02*
X014252Y009849D01*
X014175Y009690D02*
X007749Y009690D01*
X007907Y009532D02*
X010454Y009532D01*
X010432Y009522D02*
X010303Y009393D01*
X010233Y009224D01*
X010233Y009041D01*
X010303Y008872D01*
X010432Y008743D01*
X010601Y008673D01*
X011384Y008673D01*
X011553Y008743D01*
X011683Y008872D01*
X011753Y009041D01*
X011753Y009224D01*
X011683Y009393D01*
X011553Y009522D01*
X011384Y009593D01*
X010601Y009593D01*
X010432Y009522D01*
X010294Y009373D02*
X008066Y009373D01*
X008224Y009215D02*
X010233Y009215D01*
X010233Y009056D02*
X008975Y009056D01*
X009061Y008898D02*
X010292Y008898D01*
X010441Y008739D02*
X009074Y008739D01*
X009074Y008581D02*
X017698Y008581D01*
X017698Y008739D02*
X014105Y008739D01*
X014253Y008898D02*
X017698Y008898D01*
X017698Y009056D02*
X014313Y009056D01*
X014313Y009215D02*
X017698Y009215D01*
X017698Y009373D02*
X014452Y009373D01*
X014610Y009532D02*
X017698Y009532D01*
X017698Y009690D02*
X014672Y009690D01*
X014672Y009849D02*
X017698Y009849D01*
X017698Y010007D02*
X014672Y010007D01*
X014744Y010166D02*
X017698Y010166D01*
X017698Y010324D02*
X014903Y010324D01*
X015061Y010483D02*
X017698Y010483D01*
X017698Y010641D02*
X015220Y010641D01*
X015378Y010800D02*
X017698Y010800D01*
X017698Y010958D02*
X015537Y010958D01*
X015695Y011117D02*
X017698Y011117D01*
X017698Y011275D02*
X015854Y011275D01*
X016012Y011434D02*
X017698Y011434D01*
X017698Y011592D02*
X016171Y011592D01*
X015894Y011909D02*
X009057Y011909D01*
X009074Y011866D02*
X009011Y012020D01*
X008892Y012139D01*
X008738Y012203D01*
X008571Y012203D01*
X008417Y012139D01*
X008298Y012020D01*
X008234Y011866D01*
X008234Y011179D01*
X008298Y011025D01*
X008417Y010906D01*
X008571Y010843D01*
X008738Y010843D01*
X008892Y010906D01*
X009011Y011025D01*
X009074Y011179D01*
X009074Y011866D01*
X009074Y011751D02*
X015735Y011751D01*
X015577Y011592D02*
X009074Y011592D01*
X009074Y011434D02*
X015418Y011434D01*
X015260Y011275D02*
X014169Y011275D01*
X014165Y011279D02*
X014104Y011323D01*
X014037Y011357D01*
X013965Y011381D01*
X013890Y011393D01*
X013573Y011393D01*
X013573Y010933D01*
X013533Y010933D01*
X013533Y011393D01*
X013215Y011393D01*
X013140Y011381D01*
X013068Y011357D01*
X013001Y011323D01*
X012940Y011279D01*
X012886Y011225D01*
X012842Y011164D01*
X012808Y011097D01*
X012784Y011025D01*
X012773Y010950D01*
X012773Y010933D01*
X013533Y010933D01*
X013533Y010893D01*
X012773Y010893D01*
X012773Y010875D01*
X012784Y010800D01*
X012808Y010728D01*
X012842Y010661D01*
X012886Y010600D01*
X012940Y010546D01*
X013001Y010502D01*
X013068Y010468D01*
X013140Y010444D01*
X013215Y010433D01*
X013533Y010433D01*
X013533Y010893D01*
X013573Y010893D01*
X013573Y010933D01*
X014333Y010933D01*
X014333Y010950D01*
X014321Y011025D01*
X014297Y011097D01*
X014263Y011164D01*
X014219Y011225D01*
X014165Y011279D01*
X014287Y011117D02*
X015101Y011117D01*
X014943Y010958D02*
X014331Y010958D01*
X014333Y010893D02*
X013573Y010893D01*
X013573Y010433D01*
X013890Y010433D01*
X013965Y010444D01*
X014037Y010468D01*
X014104Y010502D01*
X014165Y010546D01*
X014219Y010600D01*
X014263Y010661D01*
X014297Y010728D01*
X014321Y010800D01*
X014333Y010875D01*
X014333Y010893D01*
X014321Y010800D02*
X014784Y010800D01*
X014626Y010641D02*
X014249Y010641D01*
X014066Y010483D02*
X014467Y010483D01*
X014309Y010324D02*
X007115Y010324D01*
X006892Y010906D02*
X006738Y010843D01*
X006571Y010843D01*
X006417Y010906D01*
X006298Y011025D01*
X006234Y011179D01*
X006234Y011866D01*
X006298Y012020D01*
X006417Y012139D01*
X006571Y012203D01*
X006738Y012203D01*
X006892Y012139D01*
X007011Y012020D01*
X007074Y011866D01*
X007074Y011179D01*
X007011Y011025D01*
X006892Y010906D01*
X006944Y010958D02*
X007365Y010958D01*
X007417Y010906D02*
X007571Y010843D01*
X007738Y010843D01*
X007892Y010906D01*
X008011Y011025D01*
X008074Y011179D01*
X008074Y011866D01*
X008011Y012020D01*
X007892Y012139D01*
X007738Y012203D01*
X007571Y012203D01*
X007417Y012139D01*
X007298Y012020D01*
X007234Y011866D01*
X007234Y011179D01*
X007298Y011025D01*
X007417Y010906D01*
X007260Y011117D02*
X007049Y011117D01*
X007074Y011275D02*
X007234Y011275D01*
X007234Y011434D02*
X007074Y011434D01*
X007074Y011592D02*
X007234Y011592D01*
X007234Y011751D02*
X007074Y011751D01*
X007057Y011909D02*
X007252Y011909D01*
X007345Y012068D02*
X006963Y012068D01*
X006707Y012961D02*
X006539Y012961D01*
X006385Y013025D01*
X006267Y013143D01*
X006203Y013297D01*
X006203Y013984D01*
X006267Y014139D01*
X006385Y014257D01*
X006539Y014321D01*
X006707Y014321D01*
X006861Y014257D01*
X006979Y014139D01*
X007043Y013984D01*
X007043Y013297D01*
X006979Y013143D01*
X006861Y013025D01*
X006707Y012961D01*
X006846Y013019D02*
X007400Y013019D01*
X007385Y013025D02*
X007539Y012961D01*
X007707Y012961D01*
X007861Y013025D01*
X007979Y013143D01*
X008043Y013297D01*
X008043Y013984D01*
X007979Y014139D01*
X007861Y014257D01*
X007707Y014321D01*
X007539Y014321D01*
X007385Y014257D01*
X007267Y014139D01*
X007203Y013984D01*
X007203Y013297D01*
X007267Y013143D01*
X007385Y013025D01*
X007253Y013177D02*
X006993Y013177D01*
X007043Y013336D02*
X007203Y013336D01*
X007203Y013494D02*
X007043Y013494D01*
X007043Y013653D02*
X007203Y013653D01*
X007203Y013811D02*
X007043Y013811D01*
X007043Y013970D02*
X007203Y013970D01*
X007263Y014128D02*
X006983Y014128D01*
X006789Y014287D02*
X007457Y014287D01*
X007789Y014287D02*
X008457Y014287D01*
X008385Y014257D02*
X008267Y014139D01*
X008203Y013984D01*
X008203Y013297D01*
X008267Y013143D01*
X008385Y013025D01*
X008539Y012961D01*
X008707Y012961D01*
X008861Y013025D01*
X008979Y013143D01*
X009043Y013297D01*
X009043Y013984D01*
X008979Y014139D01*
X008861Y014257D01*
X008707Y014321D01*
X008539Y014321D01*
X008385Y014257D01*
X008263Y014128D02*
X007983Y014128D01*
X008043Y013970D02*
X008203Y013970D01*
X008203Y013811D02*
X008043Y013811D01*
X008043Y013653D02*
X008203Y013653D01*
X008203Y013494D02*
X008043Y013494D01*
X008043Y013336D02*
X008203Y013336D01*
X008253Y013177D02*
X007993Y013177D01*
X007846Y013019D02*
X008400Y013019D01*
X008846Y013019D02*
X009373Y013019D01*
X009392Y013004D02*
X009454Y012973D01*
X009520Y012951D01*
X009588Y012941D01*
X009623Y012941D01*
X009658Y012941D01*
X009726Y012951D01*
X009792Y012973D01*
X009854Y013004D01*
X009910Y013045D01*
X009959Y013094D01*
X009999Y013150D01*
X010031Y013212D01*
X010052Y013278D01*
X010063Y013346D01*
X010063Y013641D01*
X010063Y013935D01*
X010052Y014004D01*
X010031Y014070D01*
X009999Y014131D01*
X009959Y014187D01*
X009910Y014236D01*
X009854Y014277D01*
X009792Y014308D01*
X009726Y014330D01*
X009658Y014341D01*
X009623Y014341D01*
X009588Y014341D01*
X009520Y014330D01*
X009454Y014308D01*
X009392Y014277D01*
X009336Y014236D01*
X009287Y014187D01*
X009247Y014131D01*
X009215Y014070D01*
X009194Y014004D01*
X009183Y013935D01*
X009183Y013641D01*
X009623Y013641D01*
X009623Y013641D01*
X009623Y014341D01*
X009623Y013641D01*
X010063Y013641D01*
X009623Y013641D01*
X009623Y013641D01*
X009623Y013641D01*
X009183Y013641D01*
X009183Y013346D01*
X009194Y013278D01*
X009215Y013212D01*
X009247Y013150D01*
X009287Y013094D01*
X009336Y013045D01*
X009392Y013004D01*
X009623Y013019D02*
X009623Y013019D01*
X009623Y012941D02*
X009623Y013641D01*
X009623Y012941D01*
X009623Y013177D02*
X009623Y013177D01*
X009623Y013336D02*
X009623Y013336D01*
X009623Y013494D02*
X009623Y013494D01*
X009623Y013641D02*
X009623Y013641D01*
X009623Y013653D02*
X009623Y013653D01*
X009623Y013811D02*
X009623Y013811D01*
X009623Y013970D02*
X009623Y013970D01*
X009623Y014128D02*
X009623Y014128D01*
X009623Y014287D02*
X009623Y014287D01*
X009835Y014287D02*
X010457Y014287D01*
X010385Y014257D02*
X010267Y014139D01*
X010203Y013984D01*
X010203Y013297D01*
X010267Y013143D01*
X010385Y013025D01*
X010539Y012961D01*
X010707Y012961D01*
X010861Y013025D01*
X010979Y013143D01*
X011043Y013297D01*
X011043Y013984D01*
X010979Y014139D01*
X010861Y014257D01*
X010707Y014321D01*
X010539Y014321D01*
X010385Y014257D01*
X010263Y014128D02*
X010001Y014128D01*
X010058Y013970D02*
X010203Y013970D01*
X010203Y013811D02*
X010063Y013811D01*
X010063Y013653D02*
X010203Y013653D01*
X010203Y013494D02*
X010063Y013494D01*
X010061Y013336D02*
X010203Y013336D01*
X010253Y013177D02*
X010013Y013177D01*
X009873Y013019D02*
X010400Y013019D01*
X010846Y013019D02*
X011400Y013019D01*
X011385Y013025D02*
X011539Y012961D01*
X011707Y012961D01*
X011861Y013025D01*
X011979Y013143D01*
X012043Y013297D01*
X012043Y013984D01*
X011979Y014139D01*
X011861Y014257D01*
X011707Y014321D01*
X011539Y014321D01*
X011385Y014257D01*
X011267Y014139D01*
X011203Y013984D01*
X011203Y013297D01*
X011267Y013143D01*
X011385Y013025D01*
X011253Y013177D02*
X010993Y013177D01*
X011043Y013336D02*
X011203Y013336D01*
X011203Y013494D02*
X011043Y013494D01*
X011043Y013653D02*
X011203Y013653D01*
X011203Y013811D02*
X011043Y013811D01*
X011043Y013970D02*
X011203Y013970D01*
X011263Y014128D02*
X010983Y014128D01*
X010789Y014287D02*
X011457Y014287D01*
X011789Y014287D02*
X012457Y014287D01*
X012385Y014257D02*
X012267Y014139D01*
X012203Y013984D01*
X012203Y013297D01*
X012267Y013143D01*
X012385Y013025D01*
X012539Y012961D01*
X012707Y012961D01*
X012861Y013025D01*
X012979Y013143D01*
X013043Y013297D01*
X013043Y013984D01*
X012979Y014139D01*
X012861Y014257D01*
X012707Y014321D01*
X012539Y014321D01*
X012385Y014257D01*
X012263Y014128D02*
X011983Y014128D01*
X012043Y013970D02*
X012203Y013970D01*
X012203Y013811D02*
X012043Y013811D01*
X012043Y013653D02*
X012203Y013653D01*
X012203Y013494D02*
X012043Y013494D01*
X012043Y013336D02*
X012203Y013336D01*
X012253Y013177D02*
X011993Y013177D01*
X011846Y013019D02*
X012400Y013019D01*
X012846Y013019D02*
X013400Y013019D01*
X013385Y013025D02*
X013539Y012961D01*
X013707Y012961D01*
X013861Y013025D01*
X013979Y013143D01*
X014043Y013297D01*
X014043Y013984D01*
X013979Y014139D01*
X013861Y014257D01*
X013707Y014321D01*
X013539Y014321D01*
X013385Y014257D01*
X013267Y014139D01*
X013203Y013984D01*
X013203Y013297D01*
X013267Y013143D01*
X013385Y013025D01*
X013253Y013177D02*
X012993Y013177D01*
X013043Y013336D02*
X013203Y013336D01*
X013203Y013494D02*
X013043Y013494D01*
X013043Y013653D02*
X013203Y013653D01*
X013203Y013811D02*
X013043Y013811D01*
X013043Y013970D02*
X013203Y013970D01*
X013263Y014128D02*
X012983Y014128D01*
X012789Y014287D02*
X013457Y014287D01*
X013789Y014287D02*
X014457Y014287D01*
X014385Y014257D02*
X014267Y014139D01*
X014203Y013984D01*
X014203Y013297D01*
X014267Y013143D01*
X014385Y013025D01*
X014539Y012961D01*
X014707Y012961D01*
X014861Y013025D01*
X014979Y013143D01*
X015043Y013297D01*
X015043Y013984D01*
X014979Y014139D01*
X014861Y014257D01*
X014707Y014321D01*
X014539Y014321D01*
X014385Y014257D01*
X014263Y014128D02*
X013983Y014128D01*
X014043Y013970D02*
X014203Y013970D01*
X014203Y013811D02*
X014043Y013811D01*
X014043Y013653D02*
X014203Y013653D01*
X014203Y013494D02*
X014043Y013494D01*
X014043Y013336D02*
X014203Y013336D01*
X014253Y013177D02*
X013993Y013177D01*
X013846Y013019D02*
X014400Y013019D01*
X014846Y013019D02*
X015400Y013019D01*
X015385Y013025D02*
X015539Y012961D01*
X015707Y012961D01*
X015861Y013025D01*
X015979Y013143D01*
X016043Y013297D01*
X016043Y013984D01*
X015979Y014139D01*
X015861Y014257D01*
X015707Y014321D01*
X015539Y014321D01*
X015385Y014257D01*
X015267Y014139D01*
X015203Y013984D01*
X015203Y013297D01*
X015267Y013143D01*
X015385Y013025D01*
X015253Y013177D02*
X014993Y013177D01*
X015043Y013336D02*
X015203Y013336D01*
X015203Y013494D02*
X015043Y013494D01*
X015043Y013653D02*
X015203Y013653D01*
X015203Y013811D02*
X015043Y013811D01*
X015043Y013970D02*
X015203Y013970D01*
X015263Y014128D02*
X014983Y014128D01*
X014789Y014287D02*
X015457Y014287D01*
X015789Y014287D02*
X016058Y014287D01*
X015983Y014128D02*
X016217Y014128D01*
X016252Y013970D02*
X016043Y013970D01*
X016043Y013811D02*
X016252Y013811D01*
X016252Y013653D02*
X016043Y013653D01*
X016043Y013494D02*
X016252Y013494D01*
X016252Y013336D02*
X016043Y013336D01*
X015993Y013177D02*
X016252Y013177D01*
X016252Y013019D02*
X015846Y013019D01*
X016146Y012860D02*
X004079Y012860D01*
X004237Y012702D02*
X016102Y012702D01*
X016129Y012543D02*
X004396Y012543D01*
X004554Y012385D02*
X016248Y012385D01*
X016211Y012226D02*
X004672Y012226D01*
X004672Y012068D02*
X005345Y012068D01*
X005298Y012020D02*
X005234Y011866D01*
X005234Y011179D01*
X005298Y011025D01*
X005417Y010906D01*
X005571Y010843D01*
X005738Y010843D01*
X005892Y010906D01*
X006011Y011025D01*
X006074Y011179D01*
X006074Y011866D01*
X006011Y012020D01*
X005892Y012139D01*
X005738Y012203D01*
X005571Y012203D01*
X005417Y012139D01*
X005298Y012020D01*
X005252Y011909D02*
X004672Y011909D01*
X004672Y011751D02*
X005234Y011751D01*
X005234Y011592D02*
X004672Y011592D01*
X004717Y011434D02*
X005234Y011434D01*
X005234Y011275D02*
X004812Y011275D01*
X004822Y011117D02*
X005260Y011117D01*
X005365Y010958D02*
X004749Y010958D01*
X004174Y010958D02*
X004172Y010958D01*
X004172Y010800D02*
X010241Y010800D01*
X010233Y010821D02*
X010303Y010652D01*
X010432Y010523D01*
X010601Y010453D01*
X011384Y010453D01*
X011553Y010523D01*
X011683Y010652D01*
X011753Y010821D01*
X011753Y011004D01*
X011683Y011173D01*
X011553Y011302D01*
X011384Y011373D01*
X010601Y011373D01*
X010432Y011302D01*
X010303Y011173D01*
X010233Y011004D01*
X010233Y010821D01*
X010233Y010958D02*
X008944Y010958D01*
X009049Y011117D02*
X010279Y011117D01*
X010405Y011275D02*
X009074Y011275D01*
X008365Y010958D02*
X007944Y010958D01*
X008049Y011117D02*
X008260Y011117D01*
X008234Y011275D02*
X008074Y011275D01*
X008074Y011434D02*
X008234Y011434D01*
X008234Y011592D02*
X008074Y011592D01*
X008074Y011751D02*
X008234Y011751D01*
X008252Y011909D02*
X008057Y011909D01*
X007963Y012068D02*
X008345Y012068D01*
X008963Y012068D02*
X016052Y012068D01*
X015900Y014445D02*
X009236Y014445D01*
X009411Y014287D02*
X008789Y014287D01*
X008687Y014445D02*
X002172Y014445D01*
X002172Y014287D02*
X002457Y014287D01*
X002263Y014128D02*
X002172Y014128D01*
X002172Y013970D02*
X002203Y013970D01*
X002203Y013811D02*
X002172Y013811D01*
X002172Y013653D02*
X002203Y013653D01*
X002203Y013494D02*
X002172Y013494D01*
X002172Y013336D02*
X002203Y013336D01*
X002846Y013019D02*
X003306Y013019D01*
X003238Y013177D02*
X002993Y013177D01*
X003043Y013336D02*
X003203Y013336D01*
X003203Y013494D02*
X003043Y013494D01*
X003043Y013653D02*
X003203Y013653D01*
X003203Y013811D02*
X003043Y013811D01*
X003043Y013970D02*
X003203Y013970D01*
X003263Y014128D02*
X002983Y014128D01*
X002789Y014287D02*
X003457Y014287D01*
X003789Y014287D02*
X004457Y014287D01*
X004385Y014257D02*
X004267Y014139D01*
X004203Y013984D01*
X004203Y013297D01*
X004267Y013143D01*
X004385Y013025D01*
X004539Y012961D01*
X004707Y012961D01*
X004861Y013025D01*
X004979Y013143D01*
X005043Y013297D01*
X005043Y013984D01*
X004979Y014139D01*
X004861Y014257D01*
X004707Y014321D01*
X004539Y014321D01*
X004385Y014257D01*
X004263Y014128D02*
X003983Y014128D01*
X004043Y013970D02*
X004203Y013970D01*
X004203Y013811D02*
X004043Y013811D01*
X004043Y013653D02*
X004203Y013653D01*
X004203Y013494D02*
X004043Y013494D01*
X004043Y013336D02*
X004203Y013336D01*
X004253Y013177D02*
X003993Y013177D01*
X003920Y013019D02*
X004400Y013019D01*
X004846Y013019D02*
X005400Y013019D01*
X005385Y013025D02*
X005539Y012961D01*
X005707Y012961D01*
X005861Y013025D01*
X005979Y013143D01*
X006043Y013297D01*
X006043Y013984D01*
X005979Y014139D01*
X005861Y014257D01*
X005707Y014321D01*
X005539Y014321D01*
X005385Y014257D01*
X005267Y014139D01*
X005203Y013984D01*
X005203Y013297D01*
X005267Y013143D01*
X005385Y013025D01*
X005253Y013177D02*
X004993Y013177D01*
X005043Y013336D02*
X005203Y013336D01*
X005203Y013494D02*
X005043Y013494D01*
X005043Y013653D02*
X005203Y013653D01*
X005203Y013811D02*
X005043Y013811D01*
X005043Y013970D02*
X005203Y013970D01*
X005263Y014128D02*
X004983Y014128D01*
X004789Y014287D02*
X005457Y014287D01*
X005789Y014287D02*
X006457Y014287D01*
X006263Y014128D02*
X005983Y014128D01*
X006043Y013970D02*
X006203Y013970D01*
X006203Y013811D02*
X006043Y013811D01*
X006043Y013653D02*
X006203Y013653D01*
X006203Y013494D02*
X006043Y013494D01*
X006043Y013336D02*
X006203Y013336D01*
X006253Y013177D02*
X005993Y013177D01*
X005846Y013019D02*
X006400Y013019D01*
X006345Y012068D02*
X005963Y012068D01*
X006057Y011909D02*
X006252Y011909D01*
X006234Y011751D02*
X006074Y011751D01*
X006074Y011592D02*
X006234Y011592D01*
X006234Y011434D02*
X006074Y011434D01*
X006074Y011275D02*
X006234Y011275D01*
X006260Y011117D02*
X006049Y011117D01*
X005944Y010958D02*
X006365Y010958D01*
X006571Y009203D02*
X006417Y009139D01*
X006298Y009020D01*
X006234Y008866D01*
X006234Y008179D01*
X006298Y008025D01*
X006417Y007906D01*
X006571Y007843D01*
X006738Y007843D01*
X006892Y007906D01*
X007011Y008025D01*
X007074Y008179D01*
X007074Y008866D01*
X007011Y009020D01*
X006892Y009139D01*
X006738Y009203D01*
X006571Y009203D01*
X006334Y009056D02*
X005975Y009056D01*
X006061Y008898D02*
X006247Y008898D01*
X006234Y008739D02*
X006074Y008739D01*
X006074Y008581D02*
X006234Y008581D01*
X006234Y008422D02*
X006074Y008422D01*
X006074Y008264D02*
X006234Y008264D01*
X006265Y008105D02*
X006044Y008105D01*
X005932Y007947D02*
X006376Y007947D01*
X006932Y007947D02*
X007376Y007947D01*
X007265Y008105D02*
X007044Y008105D01*
X007074Y008264D02*
X007234Y008264D01*
X007234Y008422D02*
X007074Y008422D01*
X007074Y008581D02*
X007234Y008581D01*
X007234Y008739D02*
X007074Y008739D01*
X007061Y008898D02*
X007247Y008898D01*
X007334Y009056D02*
X006975Y009056D01*
X007932Y007947D02*
X008376Y007947D01*
X008265Y008105D02*
X008044Y008105D01*
X008074Y008264D02*
X008234Y008264D01*
X008234Y008422D02*
X008074Y008422D01*
X008074Y008581D02*
X008234Y008581D01*
X008106Y008739D02*
X008074Y008739D01*
X008932Y007947D02*
X014214Y007947D01*
X014305Y008105D02*
X009044Y008105D01*
X009074Y008264D02*
X014440Y008264D01*
X014650Y008422D02*
X009074Y008422D01*
X010314Y010641D02*
X004172Y010641D01*
X004172Y010483D02*
X010529Y010483D01*
X011456Y010483D02*
X013039Y010483D01*
X012857Y010641D02*
X011672Y010641D01*
X011744Y010800D02*
X012785Y010800D01*
X012774Y010958D02*
X011753Y010958D01*
X011706Y011117D02*
X012818Y011117D01*
X012936Y011275D02*
X011581Y011275D01*
X011531Y009532D02*
X013014Y009532D01*
X012854Y009373D02*
X011691Y009373D01*
X011753Y009215D02*
X012793Y009215D01*
X012793Y009056D02*
X011753Y009056D01*
X011693Y008898D02*
X012852Y008898D01*
X013001Y008739D02*
X011545Y008739D01*
X013369Y006533D02*
X013278Y006461D01*
X013196Y006379D01*
X013124Y006289D01*
X013063Y006191D01*
X013012Y006087D01*
X012974Y005977D01*
X012948Y005865D01*
X012938Y005772D01*
X013885Y005772D01*
X013885Y005612D01*
X012938Y005612D01*
X012948Y005519D01*
X012974Y005406D01*
X013012Y005297D01*
X013063Y005193D01*
X013124Y005095D01*
X013196Y005004D01*
X013278Y004923D01*
X013369Y004850D01*
X013466Y004789D01*
X013571Y004739D01*
X013680Y004701D01*
X013793Y004675D01*
X013885Y004664D01*
X013885Y005612D01*
X014045Y005612D01*
X014045Y004664D01*
X014138Y004675D01*
X014251Y004701D01*
X014360Y004739D01*
X014464Y004789D01*
X014562Y004850D01*
X014653Y004923D01*
X014735Y005004D01*
X014807Y005095D01*
X014868Y005193D01*
X014919Y005297D01*
X014957Y005406D01*
X014983Y005519D01*
X014993Y005612D01*
X014045Y005612D01*
X014045Y005772D01*
X013885Y005772D01*
X013885Y006719D01*
X013793Y006709D01*
X013680Y006683D01*
X013571Y006645D01*
X013466Y006595D01*
X013369Y006533D01*
X013352Y006520D02*
X000942Y006520D01*
X000942Y006362D02*
X004787Y006362D01*
X004794Y006364D02*
X004625Y006294D01*
X004496Y006165D01*
X004426Y005996D01*
X004426Y005813D01*
X004496Y005644D01*
X004625Y005514D01*
X004794Y005444D01*
X005577Y005444D01*
X005747Y005514D01*
X005876Y005644D01*
X005946Y005813D01*
X005946Y005996D01*
X005876Y006165D01*
X005747Y006294D01*
X005577Y006364D01*
X004794Y006364D01*
X004534Y006203D02*
X000942Y006203D01*
X000942Y006045D02*
X004446Y006045D01*
X004426Y005886D02*
X000942Y005886D01*
X000942Y005728D02*
X004461Y005728D01*
X004571Y005569D02*
X000942Y005569D01*
X000942Y005411D02*
X012973Y005411D01*
X012943Y005569D02*
X005801Y005569D01*
X005911Y005728D02*
X013885Y005728D01*
X013885Y005886D02*
X014045Y005886D01*
X014045Y005772D02*
X014045Y006719D01*
X014138Y006709D01*
X014251Y006683D01*
X014360Y006645D01*
X014464Y006595D01*
X014562Y006533D01*
X014653Y006461D01*
X014735Y006379D01*
X014807Y006289D01*
X014868Y006191D01*
X014919Y006087D01*
X014957Y005977D01*
X014983Y005865D01*
X014993Y005772D01*
X014045Y005772D01*
X014045Y005728D02*
X015318Y005728D01*
X015318Y005825D02*
X015318Y005559D01*
X015387Y005302D01*
X015519Y005072D01*
X015708Y004884D01*
X015938Y004751D01*
X016195Y004682D01*
X016461Y004682D01*
X016718Y004751D01*
X016948Y004884D01*
X017136Y005072D01*
X017269Y005302D01*
X017338Y005559D01*
X017338Y005825D01*
X017269Y006082D01*
X017136Y006312D01*
X016948Y006500D01*
X016718Y006633D01*
X016461Y006702D01*
X016195Y006702D01*
X015938Y006633D01*
X015708Y006500D01*
X015519Y006312D01*
X015387Y006082D01*
X015318Y005825D01*
X015334Y005886D02*
X014978Y005886D01*
X014933Y006045D02*
X015377Y006045D01*
X015457Y006203D02*
X014861Y006203D01*
X014749Y006362D02*
X015569Y006362D01*
X015742Y006520D02*
X014579Y006520D01*
X014623Y006679D02*
X014264Y006679D01*
X014045Y006679D02*
X013885Y006679D01*
X013885Y006520D02*
X014045Y006520D01*
X014045Y006362D02*
X013885Y006362D01*
X013885Y006203D02*
X014045Y006203D01*
X014045Y006045D02*
X013885Y006045D01*
X013885Y005569D02*
X014045Y005569D01*
X014045Y005411D02*
X013885Y005411D01*
X013885Y005252D02*
X014045Y005252D01*
X014045Y005094D02*
X013885Y005094D01*
X013885Y004935D02*
X014045Y004935D01*
X014045Y004777D02*
X013885Y004777D01*
X013492Y004777D02*
X011563Y004777D01*
X011576Y004808D02*
X011503Y004630D01*
X011366Y004493D01*
X011188Y004419D01*
X010995Y004419D01*
X010817Y004493D01*
X010680Y004630D01*
X010606Y004808D01*
X010606Y005001D01*
X010680Y005179D01*
X010817Y005316D01*
X010995Y005389D01*
X011188Y005389D01*
X011366Y005316D01*
X011503Y005179D01*
X011576Y005001D01*
X011576Y004808D01*
X011576Y004935D02*
X013266Y004935D01*
X013125Y005094D02*
X011538Y005094D01*
X011430Y005252D02*
X013034Y005252D01*
X012953Y005886D02*
X005946Y005886D01*
X005926Y006045D02*
X012998Y006045D01*
X013070Y006203D02*
X005838Y006203D01*
X005584Y006362D02*
X013182Y006362D01*
X013667Y006679D02*
X000942Y006679D01*
X000942Y006837D02*
X014423Y006837D01*
X014296Y006996D02*
X000942Y006996D01*
X000942Y007154D02*
X014205Y007154D01*
X014163Y007313D02*
X000942Y007313D01*
X000942Y007471D02*
X001374Y007471D01*
X001252Y007630D02*
X000942Y007630D01*
X000942Y007788D02*
X001252Y007788D01*
X001252Y007947D02*
X000942Y007947D01*
X000942Y008105D02*
X001186Y008105D01*
X001028Y008264D02*
X000942Y008264D01*
X000942Y008422D02*
X001027Y008422D01*
X001027Y008581D02*
X000942Y008581D01*
X000942Y008739D02*
X001095Y008739D01*
X000942Y008898D02*
X001254Y008898D01*
X001235Y009056D02*
X000942Y009056D01*
X000942Y009215D02*
X001077Y009215D01*
X001027Y009373D02*
X000942Y009373D01*
X000942Y009532D02*
X001027Y009532D01*
X001046Y009690D02*
X000942Y009690D01*
X000942Y009849D02*
X001205Y009849D01*
X001284Y010007D02*
X000942Y010007D01*
X000942Y010166D02*
X001126Y010166D01*
X001027Y010324D02*
X000942Y010324D01*
X000942Y010483D02*
X001027Y010483D01*
X001027Y010641D02*
X000942Y010641D01*
X000942Y010800D02*
X001045Y010800D01*
X001481Y010958D02*
X003252Y010958D01*
X003252Y010800D02*
X002878Y010800D01*
X003007Y010641D02*
X003252Y010641D01*
X003252Y010483D02*
X003007Y010483D01*
X003007Y010324D02*
X003252Y010324D01*
X003252Y010166D02*
X002908Y010166D01*
X002749Y010007D02*
X003252Y010007D01*
X003252Y009849D02*
X002829Y009849D01*
X002987Y009690D02*
X003252Y009690D01*
X003252Y009532D02*
X003007Y009532D01*
X003007Y009373D02*
X003252Y009373D01*
X003252Y009215D02*
X002957Y009215D01*
X002798Y009056D02*
X003252Y009056D01*
X003252Y008898D02*
X002808Y008898D01*
X002966Y008739D02*
X003224Y008739D01*
X003065Y008581D02*
X003027Y008581D01*
X002537Y008581D02*
X002497Y008581D01*
X002497Y008739D02*
X002537Y008739D01*
X002537Y008898D02*
X002497Y008898D01*
X002672Y007593D02*
X002672Y007593D01*
X002550Y007471D02*
X014137Y007471D01*
X014988Y005569D02*
X015318Y005569D01*
X015357Y005411D02*
X014958Y005411D01*
X014897Y005252D02*
X015415Y005252D01*
X015507Y005094D02*
X014806Y005094D01*
X014665Y004935D02*
X015656Y004935D01*
X015893Y004777D02*
X014439Y004777D01*
X015516Y003053D02*
X015305Y002842D01*
X015157Y002585D01*
X015080Y002297D01*
X015080Y002000D01*
X015157Y001712D01*
X015305Y001455D01*
X015516Y001244D01*
X015773Y001096D01*
X016061Y001019D01*
X016358Y001019D01*
X016646Y001096D01*
X016903Y001244D01*
X017114Y001455D01*
X017263Y001712D01*
X017340Y002000D01*
X017340Y002297D01*
X017263Y002585D01*
X017114Y002842D01*
X016903Y003053D01*
X016646Y003201D01*
X016358Y003279D01*
X016061Y003279D01*
X015773Y003201D01*
X015516Y003053D01*
X015496Y003033D02*
X003144Y003033D01*
X003124Y003053D02*
X002866Y003201D01*
X002579Y003279D01*
X002281Y003279D01*
X001994Y003201D01*
X001736Y003053D01*
X001526Y002842D01*
X001377Y002585D01*
X001300Y002297D01*
X001300Y002000D01*
X001377Y001712D01*
X001526Y001455D01*
X001736Y001244D01*
X001994Y001096D01*
X002281Y001019D01*
X002579Y001019D01*
X002866Y001096D01*
X003124Y001244D01*
X003334Y001455D01*
X003483Y001712D01*
X003560Y002000D01*
X003560Y002297D01*
X003483Y002585D01*
X003334Y002842D01*
X003124Y003053D01*
X003302Y002875D02*
X015338Y002875D01*
X015232Y002716D02*
X003407Y002716D01*
X003490Y002558D02*
X015149Y002558D01*
X015107Y002399D02*
X003533Y002399D01*
X003560Y002241D02*
X015080Y002241D01*
X015080Y002082D02*
X003560Y002082D01*
X003540Y001924D02*
X015100Y001924D01*
X015142Y001765D02*
X003497Y001765D01*
X003422Y001607D02*
X015218Y001607D01*
X015312Y001448D02*
X003328Y001448D01*
X003169Y001290D02*
X015471Y001290D01*
X015712Y001131D02*
X002928Y001131D01*
X001932Y001131D02*
X000942Y001131D01*
X000942Y000973D02*
X017698Y000973D01*
X017698Y001131D02*
X016707Y001131D01*
X016949Y001290D02*
X017698Y001290D01*
X017698Y001448D02*
X017107Y001448D01*
X017201Y001607D02*
X017698Y001607D01*
X017698Y001765D02*
X017277Y001765D01*
X017319Y001924D02*
X017698Y001924D01*
X017698Y002082D02*
X017340Y002082D01*
X017340Y002241D02*
X017698Y002241D01*
X017698Y002399D02*
X017312Y002399D01*
X017270Y002558D02*
X017698Y002558D01*
X017698Y002716D02*
X017187Y002716D01*
X017082Y002875D02*
X017698Y002875D01*
X017698Y003033D02*
X016923Y003033D01*
X016663Y003192D02*
X017698Y003192D01*
X017698Y003350D02*
X000942Y003350D01*
X000942Y003192D02*
X001977Y003192D01*
X001716Y003033D02*
X000942Y003033D01*
X000942Y002875D02*
X001558Y002875D01*
X001453Y002716D02*
X000942Y002716D01*
X000942Y002558D02*
X001370Y002558D01*
X001327Y002399D02*
X000942Y002399D01*
X000942Y002241D02*
X001300Y002241D01*
X001300Y002082D02*
X000942Y002082D01*
X000942Y001924D02*
X001320Y001924D01*
X001363Y001765D02*
X000942Y001765D01*
X000942Y001607D02*
X001438Y001607D01*
X001532Y001448D02*
X000942Y001448D01*
X000942Y001290D02*
X001691Y001290D01*
X000942Y000814D02*
X017698Y000814D01*
X017698Y003509D02*
X011406Y003509D01*
X011420Y003519D02*
X011477Y003575D01*
X011523Y003640D01*
X011559Y003711D01*
X011584Y003786D01*
X011596Y003865D01*
X011596Y003904D01*
X011091Y003904D01*
X010586Y003904D01*
X010586Y003865D01*
X010599Y003786D01*
X010623Y003711D01*
X010660Y003640D01*
X010706Y003575D01*
X010762Y003519D01*
X010827Y003472D01*
X010898Y003436D01*
X010973Y003412D01*
X011052Y003399D01*
X011091Y003399D01*
X011091Y003904D01*
X011091Y003904D01*
X011091Y003904D01*
X010586Y003904D01*
X010586Y003944D01*
X010599Y004023D01*
X010623Y004098D01*
X010660Y004169D01*
X010706Y004233D01*
X010762Y004290D01*
X010827Y004336D01*
X010898Y004372D01*
X010973Y004397D01*
X011052Y004409D01*
X011091Y004409D01*
X011091Y003904D01*
X011091Y003399D01*
X011131Y003399D01*
X011210Y003412D01*
X011285Y003436D01*
X011356Y003472D01*
X011420Y003519D01*
X011537Y003667D02*
X017698Y003667D01*
X017698Y003826D02*
X011590Y003826D01*
X011596Y003904D02*
X011596Y003944D01*
X011584Y004023D01*
X011559Y004098D01*
X011523Y004169D01*
X011477Y004233D01*
X011420Y004290D01*
X011356Y004336D01*
X011285Y004372D01*
X011210Y004397D01*
X011131Y004409D01*
X011091Y004409D01*
X011091Y003904D01*
X011091Y003904D01*
X011091Y003904D01*
X011596Y003904D01*
X011590Y003984D02*
X017698Y003984D01*
X017698Y004143D02*
X011537Y004143D01*
X011405Y004301D02*
X017698Y004301D01*
X017698Y004460D02*
X011285Y004460D01*
X011091Y004301D02*
X011091Y004301D01*
X011091Y004143D02*
X011091Y004143D01*
X011091Y003984D02*
X011091Y003984D01*
X011091Y003826D02*
X011091Y003826D01*
X011091Y003667D02*
X011091Y003667D01*
X011091Y003509D02*
X011091Y003509D01*
X010777Y003509D02*
X009044Y003509D01*
X009058Y003519D02*
X009114Y003575D01*
X009161Y003640D01*
X009197Y003711D01*
X009222Y003786D01*
X009234Y003865D01*
X009234Y003904D01*
X008729Y003904D01*
X008729Y003904D01*
X008729Y003399D01*
X008690Y003399D01*
X008611Y003412D01*
X008535Y003436D01*
X008465Y003472D01*
X008400Y003519D01*
X008344Y003575D01*
X008297Y003640D01*
X008261Y003711D01*
X008237Y003786D01*
X008224Y003865D01*
X008224Y003904D01*
X008729Y003904D01*
X008729Y003904D01*
X008729Y003399D01*
X008769Y003399D01*
X008848Y003412D01*
X008923Y003436D01*
X008994Y003472D01*
X009058Y003519D01*
X009175Y003667D02*
X010646Y003667D01*
X010593Y003826D02*
X009228Y003826D01*
X009234Y003904D02*
X009234Y003944D01*
X009222Y004023D01*
X009197Y004098D01*
X009161Y004169D01*
X009114Y004233D01*
X009058Y004290D01*
X008994Y004336D01*
X008923Y004372D01*
X008848Y004397D01*
X008769Y004409D01*
X008729Y004409D01*
X008690Y004409D01*
X008611Y004397D01*
X008535Y004372D01*
X008465Y004336D01*
X008400Y004290D01*
X008344Y004233D01*
X008297Y004169D01*
X008261Y004098D01*
X008237Y004023D01*
X008224Y003944D01*
X008224Y003904D01*
X008729Y003904D01*
X008729Y003904D01*
X008729Y004409D01*
X008729Y003904D01*
X008729Y003904D01*
X009234Y003904D01*
X009228Y003984D02*
X010593Y003984D01*
X010646Y004143D02*
X009175Y004143D01*
X009043Y004301D02*
X010778Y004301D01*
X010898Y004460D02*
X008923Y004460D01*
X009004Y004493D02*
X008826Y004419D01*
X008633Y004419D01*
X008455Y004493D01*
X008318Y004630D01*
X008244Y004808D01*
X008244Y005001D01*
X008318Y005179D01*
X008455Y005316D01*
X008633Y005389D01*
X008826Y005389D01*
X009004Y005316D01*
X009140Y005179D01*
X009214Y005001D01*
X009214Y004808D01*
X009140Y004630D01*
X009004Y004493D01*
X009129Y004618D02*
X010692Y004618D01*
X010619Y004777D02*
X009201Y004777D01*
X009214Y004935D02*
X010606Y004935D01*
X010645Y005094D02*
X009176Y005094D01*
X009068Y005252D02*
X010753Y005252D01*
X011491Y004618D02*
X017698Y004618D01*
X017698Y004777D02*
X016762Y004777D01*
X016999Y004935D02*
X017698Y004935D01*
X017698Y005094D02*
X017149Y005094D01*
X017240Y005252D02*
X017698Y005252D01*
X017698Y005411D02*
X017298Y005411D01*
X017338Y005569D02*
X017698Y005569D01*
X017698Y005728D02*
X017338Y005728D01*
X017321Y005886D02*
X017698Y005886D01*
X017698Y006045D02*
X017279Y006045D01*
X017199Y006203D02*
X017698Y006203D01*
X017698Y006362D02*
X017086Y006362D01*
X016913Y006520D02*
X017698Y006520D01*
X017698Y006679D02*
X016548Y006679D01*
X016108Y006679D02*
X015671Y006679D01*
X015870Y006837D02*
X017698Y006837D01*
X017698Y006996D02*
X015997Y006996D01*
X016088Y007154D02*
X017698Y007154D01*
X017698Y007313D02*
X016131Y007313D01*
X016157Y007471D02*
X017698Y007471D01*
X017698Y007630D02*
X016157Y007630D01*
X016126Y007788D02*
X017698Y007788D01*
X017698Y007947D02*
X016079Y007947D01*
X015988Y008105D02*
X017698Y008105D01*
X017698Y008264D02*
X015854Y008264D01*
X015643Y008422D02*
X017698Y008422D01*
X015756Y003192D02*
X002884Y003192D01*
X004441Y003720D02*
X004475Y003653D01*
X004520Y003592D01*
X004573Y003538D01*
X004634Y003494D01*
X004702Y003460D01*
X004774Y003436D01*
X004848Y003424D01*
X005166Y003424D01*
X005166Y003884D01*
X005206Y003884D01*
X005206Y003424D01*
X005524Y003424D01*
X005598Y003436D01*
X005670Y003460D01*
X005738Y003494D01*
X005799Y003538D01*
X005852Y003592D01*
X005896Y003653D01*
X005931Y003720D01*
X005954Y003792D01*
X005966Y003867D01*
X005966Y003884D01*
X005206Y003884D01*
X005206Y003924D01*
X005966Y003924D01*
X005966Y003942D01*
X005954Y004017D01*
X005931Y004089D01*
X005896Y004156D01*
X005852Y004217D01*
X005799Y004271D01*
X005738Y004315D01*
X005670Y004349D01*
X005598Y004373D01*
X005524Y004384D01*
X005206Y004384D01*
X005206Y003924D01*
X005166Y003924D01*
X005166Y003884D01*
X004406Y003884D01*
X004406Y003867D01*
X004418Y003792D01*
X004441Y003720D01*
X004468Y003667D02*
X000942Y003667D01*
X000942Y003509D02*
X004614Y003509D01*
X004412Y003826D02*
X000942Y003826D01*
X000942Y003984D02*
X004413Y003984D01*
X004418Y004017D02*
X004406Y003942D01*
X004406Y003924D01*
X005166Y003924D01*
X005166Y004384D01*
X004848Y004384D01*
X004774Y004373D01*
X004702Y004349D01*
X004634Y004315D01*
X004573Y004271D01*
X004520Y004217D01*
X004475Y004156D01*
X004441Y004089D01*
X004418Y004017D01*
X004469Y004143D02*
X000942Y004143D01*
X000942Y004301D02*
X004615Y004301D01*
X004758Y004460D02*
X000942Y004460D01*
X000942Y004618D02*
X004522Y004618D01*
X004496Y004644D02*
X004625Y004514D01*
X004794Y004444D01*
X005577Y004444D01*
X005747Y004514D01*
X005876Y004644D01*
X005946Y004813D01*
X005946Y004996D01*
X005876Y005165D01*
X005747Y005294D01*
X005577Y005364D01*
X004794Y005364D01*
X004625Y005294D01*
X004496Y005165D01*
X004426Y004996D01*
X004426Y004813D01*
X004496Y004644D01*
X004441Y004777D02*
X000942Y004777D01*
X000942Y004935D02*
X004426Y004935D01*
X004466Y005094D02*
X000942Y005094D01*
X000942Y005252D02*
X004583Y005252D01*
X005166Y004301D02*
X005206Y004301D01*
X005206Y004143D02*
X005166Y004143D01*
X005166Y003984D02*
X005206Y003984D01*
X005206Y003826D02*
X005166Y003826D01*
X005166Y003667D02*
X005206Y003667D01*
X005206Y003509D02*
X005166Y003509D01*
X005758Y003509D02*
X008415Y003509D01*
X008283Y003667D02*
X005904Y003667D01*
X005959Y003826D02*
X008230Y003826D01*
X008231Y003984D02*
X005959Y003984D01*
X005903Y004143D02*
X008284Y004143D01*
X008416Y004301D02*
X005757Y004301D01*
X005614Y004460D02*
X008536Y004460D01*
X008729Y004301D02*
X008729Y004301D01*
X008729Y004143D02*
X008729Y004143D01*
X008729Y003984D02*
X008729Y003984D01*
X008729Y003826D02*
X008729Y003826D01*
X008729Y003667D02*
X008729Y003667D01*
X008729Y003509D02*
X008729Y003509D01*
X008330Y004618D02*
X005850Y004618D01*
X005931Y004777D02*
X008257Y004777D01*
X008244Y004935D02*
X005946Y004935D01*
X005906Y005094D02*
X008283Y005094D01*
X008391Y005252D02*
X005789Y005252D01*
X003838Y010007D02*
X003672Y010007D01*
X003672Y010166D02*
X003752Y010166D01*
X003752Y010324D02*
X003672Y010324D01*
X003672Y010483D02*
X003752Y010483D01*
X003752Y010641D02*
X003672Y010641D01*
X003672Y010800D02*
X003752Y010800D01*
X003752Y010958D02*
X003672Y010958D01*
X003672Y011117D02*
X003752Y011117D01*
X003752Y011275D02*
X003672Y011275D01*
X003672Y011434D02*
X003752Y011434D01*
X003752Y011592D02*
X003672Y011592D01*
X003672Y011751D02*
X003752Y011751D01*
X003752Y011909D02*
X003672Y011909D01*
X003672Y012068D02*
X003752Y012068D01*
X003252Y011909D02*
X002768Y011909D01*
X002927Y011751D02*
X003252Y011751D01*
X003252Y011592D02*
X003007Y011592D01*
X003007Y011434D02*
X003252Y011434D01*
X003252Y011275D02*
X003007Y011275D01*
X002859Y011117D02*
X003252Y011117D01*
X001326Y013019D02*
X000942Y013019D01*
X000942Y013177D02*
X001252Y013177D01*
X001252Y013336D02*
X000942Y013336D01*
X000942Y013494D02*
X001252Y013494D01*
X001252Y013653D02*
X000942Y013653D01*
X000942Y013811D02*
X001252Y013811D01*
X001252Y013970D02*
X000942Y013970D01*
X000942Y014128D02*
X001252Y014128D01*
X001252Y014287D02*
X000942Y014287D01*
X000942Y014445D02*
X001252Y014445D01*
X001252Y014604D02*
X000942Y014604D01*
X000942Y014762D02*
X001252Y014762D01*
X001252Y014921D02*
X000942Y014921D01*
X000942Y015079D02*
X001252Y015079D01*
X001252Y015238D02*
X000942Y015238D01*
X000942Y015396D02*
X001252Y015396D01*
X001252Y015555D02*
X000942Y015555D01*
X000942Y015713D02*
X001252Y015713D01*
X001252Y015872D02*
X000942Y015872D01*
X000942Y016030D02*
X001252Y016030D01*
X001252Y016189D02*
X000942Y016189D01*
X000942Y016347D02*
X001252Y016347D01*
X001252Y016506D02*
X000942Y016506D01*
X000942Y016664D02*
X001252Y016664D01*
X001307Y016823D02*
X000942Y016823D01*
X000942Y016981D02*
X001466Y016981D01*
X001624Y017140D02*
X000942Y017140D01*
X000942Y017298D02*
X001783Y017298D01*
X001663Y017615D02*
X001623Y017615D01*
X001623Y017774D02*
X001663Y017774D01*
X001663Y017932D02*
X001623Y017932D01*
X002377Y017298D02*
X002485Y017298D01*
X002535Y017457D02*
X003252Y017457D01*
X003252Y017615D02*
X002672Y017615D01*
X002672Y017774D02*
X003252Y017774D01*
X003252Y017932D02*
X002672Y017932D01*
X002672Y018091D02*
X003252Y018091D01*
X003252Y018249D02*
X002672Y018249D01*
X002672Y018408D02*
X003252Y018408D01*
X003252Y018566D02*
X002672Y018566D01*
X002672Y018725D02*
X003252Y018725D01*
X003252Y018883D02*
X002672Y018883D01*
X002672Y019042D02*
X003252Y019042D01*
X003252Y019200D02*
X002672Y019200D01*
X002672Y019359D02*
X003252Y019359D01*
X003252Y019517D02*
X002672Y019517D01*
X002672Y019676D02*
X003252Y019676D01*
X003252Y019834D02*
X002672Y019834D01*
X002672Y019993D02*
X003252Y019993D01*
X003252Y020151D02*
X002672Y020151D01*
X002672Y020310D02*
X003252Y020310D01*
X003252Y020468D02*
X002672Y020468D01*
X002672Y020627D02*
X003252Y020627D01*
X003270Y020785D02*
X002672Y020785D01*
X003672Y019834D02*
X004834Y019834D01*
X004857Y019857D02*
X004801Y019800D01*
X004754Y019736D01*
X004718Y019665D01*
X004693Y019590D01*
X004681Y019511D01*
X004681Y019471D01*
X004681Y019432D01*
X004693Y019353D01*
X004718Y019277D01*
X004754Y019207D01*
X004801Y019142D01*
X004857Y019086D01*
X004921Y019039D01*
X004992Y019003D01*
X005068Y018979D01*
X005146Y018966D01*
X005186Y018966D01*
X005226Y018966D01*
X005304Y018979D01*
X005380Y019003D01*
X005451Y019039D01*
X005515Y019086D01*
X005571Y019142D01*
X005618Y019207D01*
X005654Y019277D01*
X005679Y019353D01*
X005691Y019432D01*
X005691Y019471D01*
X005186Y019471D01*
X005186Y018966D01*
X005186Y019471D01*
X005186Y019471D01*
X005186Y019471D01*
X004681Y019471D01*
X005186Y019471D01*
X005186Y019471D01*
X005691Y019471D01*
X005691Y019511D01*
X005679Y019590D01*
X005654Y019665D01*
X005618Y019736D01*
X005571Y019800D01*
X005515Y019857D01*
X005451Y019903D01*
X005380Y019939D01*
X005304Y019964D01*
X005226Y019976D01*
X005186Y019976D01*
X005186Y019471D01*
X005186Y019471D01*
X005186Y019976D01*
X005146Y019976D01*
X005068Y019964D01*
X004992Y019939D01*
X004921Y019903D01*
X004857Y019857D01*
X004723Y019676D02*
X003672Y019676D01*
X003672Y019517D02*
X004682Y019517D01*
X004693Y019359D02*
X003672Y019359D01*
X003672Y019200D02*
X004759Y019200D01*
X004918Y019042D02*
X003672Y019042D01*
X003672Y018883D02*
X004864Y018883D01*
X004750Y018725D02*
X003672Y018725D01*
X003672Y018566D02*
X004701Y018566D01*
X004701Y018408D02*
X003672Y018408D01*
X003672Y018249D02*
X004752Y018249D01*
X004754Y018091D02*
X003672Y018091D01*
X003672Y017932D02*
X004913Y017932D01*
X005071Y017774D02*
X003672Y017774D01*
X003672Y017615D02*
X005230Y017615D01*
X005388Y017457D02*
X003672Y017457D01*
X003761Y017298D02*
X004485Y017298D01*
X004268Y017140D02*
X003978Y017140D01*
X004043Y016981D02*
X004203Y016981D01*
X004203Y016823D02*
X004043Y016823D01*
X004043Y016664D02*
X004203Y016664D01*
X004203Y016506D02*
X004043Y016506D01*
X004043Y016347D02*
X004203Y016347D01*
X004242Y016189D02*
X003998Y016189D01*
X003866Y016030D02*
X004252Y016030D01*
X004672Y015872D02*
X005252Y015872D01*
X005252Y016030D02*
X004866Y016030D01*
X004998Y016189D02*
X005242Y016189D01*
X005203Y016347D02*
X005043Y016347D01*
X005043Y016506D02*
X005203Y016506D01*
X005203Y016664D02*
X005043Y016664D01*
X005043Y016823D02*
X005203Y016823D01*
X005203Y016981D02*
X005043Y016981D01*
X004978Y017140D02*
X005268Y017140D01*
X005485Y017298D02*
X004761Y017298D01*
X005507Y017932D02*
X007252Y017932D01*
X007252Y017774D02*
X005665Y017774D01*
X005824Y017615D02*
X007252Y017615D01*
X007252Y017457D02*
X005982Y017457D01*
X006141Y017298D02*
X006485Y017298D01*
X006761Y017298D02*
X007252Y017298D01*
X007252Y017140D02*
X006978Y017140D01*
X007043Y016981D02*
X007203Y016981D01*
X007203Y016823D02*
X007043Y016823D01*
X007043Y016664D02*
X007203Y016664D01*
X007203Y016506D02*
X007043Y016506D01*
X007043Y016347D02*
X007203Y016347D01*
X007248Y016189D02*
X006998Y016189D01*
X006866Y016030D02*
X007380Y016030D01*
X006380Y016030D02*
X005866Y016030D01*
X005998Y016189D02*
X006248Y016189D01*
X006203Y016347D02*
X006043Y016347D01*
X006043Y016506D02*
X006203Y016506D01*
X006181Y016664D02*
X006043Y016664D01*
X005252Y015713D02*
X004672Y015713D01*
X004672Y015555D02*
X005290Y015555D01*
X004672Y015396D02*
X009668Y015396D01*
X010057Y016030D02*
X010380Y016030D01*
X010272Y015872D02*
X012856Y015872D01*
X012866Y016030D02*
X013015Y016030D01*
X012998Y016189D02*
X013173Y016189D01*
X013203Y016347D02*
X013043Y016347D01*
X013043Y016506D02*
X013203Y016506D01*
X013203Y016664D02*
X013043Y016664D01*
X013043Y016823D02*
X013203Y016823D01*
X013203Y016981D02*
X013043Y016981D01*
X012978Y017140D02*
X013268Y017140D01*
X013450Y015872D02*
X015151Y015872D01*
X015102Y015713D02*
X013292Y015713D01*
X013133Y015555D02*
X015124Y015555D01*
X015168Y015396D02*
X012975Y015396D01*
X012816Y015238D02*
X015102Y015238D01*
X015114Y015079D02*
X012658Y015079D01*
X012499Y014921D02*
X015212Y014921D01*
X015583Y014762D02*
X012341Y014762D01*
X012182Y014604D02*
X015741Y014604D01*
X015704Y017932D02*
X015507Y017932D01*
X014252Y019042D02*
X012620Y019042D01*
X012779Y019200D02*
X014252Y019200D01*
X014252Y019359D02*
X012937Y019359D01*
X013096Y019517D02*
X014252Y019517D01*
X014252Y019676D02*
X013172Y019676D01*
X013228Y019834D02*
X014252Y019834D01*
X014150Y019993D02*
X013303Y019993D01*
X013303Y020151D02*
X014102Y020151D01*
X014126Y020310D02*
X013303Y020310D01*
X013303Y020468D02*
X014240Y020468D01*
X014928Y020944D02*
X013270Y020944D01*
X012775Y020944D02*
X012770Y020944D01*
X012757Y021895D02*
X012817Y021895D01*
X012523Y021895D02*
X012523Y021895D01*
X012523Y022053D02*
X012523Y022053D01*
X012523Y022212D02*
X012523Y022212D01*
X012523Y022370D02*
X012523Y022370D01*
X012523Y022529D02*
X012523Y022529D01*
X012523Y022687D02*
X012523Y022687D01*
X012523Y022846D02*
X012523Y022846D01*
X012523Y023004D02*
X012523Y023004D01*
X012288Y021895D02*
X012256Y021895D01*
X011775Y023004D02*
X011770Y023004D01*
X011317Y021895D02*
X011185Y021895D01*
X011275Y020944D02*
X009995Y020944D01*
X009836Y021102D02*
X015087Y021102D01*
X015245Y021261D02*
X009678Y021261D01*
X010153Y020785D02*
X011243Y020785D01*
X011243Y020627D02*
X010312Y020627D01*
X010470Y020468D02*
X011243Y020468D01*
X011243Y020310D02*
X010629Y020310D01*
X010788Y020151D02*
X011243Y020151D01*
X011243Y019993D02*
X010946Y019993D01*
X011105Y019834D02*
X011317Y019834D01*
X011172Y019676D02*
X012660Y019676D01*
X012728Y019834D02*
X012752Y019834D01*
X012502Y019517D02*
X011172Y019517D01*
X011728Y019834D02*
X011817Y019834D01*
X012228Y019834D02*
X012317Y019834D01*
X010485Y017298D02*
X009761Y017298D01*
X009978Y017140D02*
X010268Y017140D01*
X010203Y016981D02*
X010043Y016981D01*
X010043Y016823D02*
X010203Y016823D01*
X010203Y016664D02*
X010043Y016664D01*
X010043Y016506D02*
X010203Y016506D01*
X010203Y016347D02*
X010043Y016347D01*
X009998Y016189D02*
X010248Y016189D01*
X010322Y015713D02*
X012698Y015713D01*
X012539Y015555D02*
X010299Y015555D01*
X010255Y015396D02*
X012381Y015396D01*
X012222Y015238D02*
X010322Y015238D01*
X010309Y015079D02*
X012064Y015079D01*
X011905Y014921D02*
X010211Y014921D01*
X010866Y016030D02*
X011380Y016030D01*
X011248Y016189D02*
X010998Y016189D01*
X011043Y016347D02*
X011203Y016347D01*
X011203Y016506D02*
X011043Y016506D01*
X011043Y016664D02*
X011181Y016664D01*
X011866Y016030D02*
X012380Y016030D01*
X012248Y016189D02*
X011998Y016189D01*
X012043Y016347D02*
X012203Y016347D01*
X012203Y016506D02*
X012043Y016506D01*
X012043Y016664D02*
X012181Y016664D01*
X009245Y014128D02*
X008983Y014128D01*
X009043Y013970D02*
X009188Y013970D01*
X009183Y013811D02*
X009043Y013811D01*
X009043Y013653D02*
X009183Y013653D01*
X009183Y013494D02*
X009043Y013494D01*
X009043Y013336D02*
X009185Y013336D01*
X009233Y013177D02*
X008993Y013177D01*
X008604Y014604D02*
X002172Y014604D01*
X002172Y014762D02*
X008606Y014762D01*
X007243Y018091D02*
X005491Y018091D01*
X005619Y018249D02*
X007115Y018249D01*
X007063Y018408D02*
X005671Y018408D01*
X005671Y018566D02*
X007063Y018566D01*
X007128Y018725D02*
X005606Y018725D01*
X005459Y018883D02*
X007275Y018883D01*
X007281Y019042D02*
X005454Y019042D01*
X005613Y019200D02*
X007121Y019200D01*
X007055Y019359D02*
X005679Y019359D01*
X005690Y019517D02*
X007044Y019517D01*
X007085Y019676D02*
X005649Y019676D01*
X005537Y019834D02*
X007197Y019834D01*
X007548Y019834D02*
X007548Y019834D01*
X007548Y019676D02*
X007548Y019676D01*
X007548Y019517D02*
X007548Y019517D01*
X007548Y019359D02*
X007548Y019359D01*
X007548Y019200D02*
X007548Y019200D01*
X007548Y019042D02*
X007548Y019042D01*
X005186Y019042D02*
X005186Y019042D01*
X005186Y019200D02*
X005186Y019200D01*
X005186Y019359D02*
X005186Y019359D01*
X005186Y019517D02*
X005186Y019517D01*
X005186Y019676D02*
X005186Y019676D01*
X005186Y019834D02*
X005186Y019834D01*
X003252Y017298D02*
X002761Y017298D01*
X002978Y017140D02*
X003252Y017140D01*
X003203Y016981D02*
X003043Y016981D01*
X003043Y016823D02*
X003203Y016823D01*
X003203Y016664D02*
X003043Y016664D01*
X003043Y016506D02*
X003203Y016506D01*
X003203Y016347D02*
X003043Y016347D01*
X002998Y016189D02*
X003248Y016189D01*
X003380Y016030D02*
X002866Y016030D01*
X002203Y016506D02*
X001672Y016506D01*
X001743Y016664D02*
X002203Y016664D01*
X002203Y016823D02*
X001901Y016823D01*
X002060Y016981D02*
X002203Y016981D01*
X002218Y017140D02*
X002268Y017140D01*
X005673Y024534D02*
X005868Y024453D01*
X006079Y024453D01*
X006274Y024534D01*
X006423Y024683D01*
X006473Y024805D01*
X006524Y024683D01*
X006673Y024534D01*
X006868Y024453D01*
X007079Y024453D01*
X007274Y024534D01*
X007423Y024683D01*
X007503Y024878D01*
X007503Y025089D01*
X007423Y025283D01*
X007274Y025432D01*
X007079Y025513D01*
X006868Y025513D01*
X006673Y025432D01*
X006524Y025283D01*
X006473Y025161D01*
X006423Y025283D01*
X006274Y025432D01*
X006079Y025513D01*
X005868Y025513D01*
X005673Y025432D01*
X005524Y025283D01*
X005443Y025089D01*
X005443Y024878D01*
X005524Y024683D01*
X005673Y024534D01*
X005618Y024589D02*
X004179Y024589D01*
X004300Y024748D02*
X005497Y024748D01*
X005443Y024906D02*
X004354Y024906D01*
X004354Y025065D02*
X005443Y025065D01*
X005499Y025223D02*
X004298Y025223D01*
X004175Y025382D02*
X005622Y025382D01*
X006325Y025382D02*
X006622Y025382D01*
X006499Y025223D02*
X006448Y025223D01*
X006449Y024748D02*
X006497Y024748D01*
X006618Y024589D02*
X006329Y024589D01*
X007329Y024589D02*
X008768Y024589D01*
X008823Y024534D02*
X009018Y024453D01*
X009228Y024453D01*
X009423Y024534D01*
X009572Y024683D01*
X009623Y024805D01*
X009674Y024683D01*
X009823Y024534D01*
X010018Y024453D01*
X010228Y024453D01*
X010423Y024534D01*
X010572Y024683D01*
X010653Y024878D01*
X010653Y025089D01*
X010572Y025283D01*
X010423Y025432D01*
X010228Y025513D01*
X010018Y025513D01*
X009823Y025432D01*
X009674Y025283D01*
X009623Y025161D01*
X009572Y025283D01*
X009423Y025432D01*
X009228Y025513D01*
X009018Y025513D01*
X008823Y025432D01*
X008674Y025283D01*
X008593Y025089D01*
X008593Y024878D01*
X008674Y024683D01*
X008823Y024534D01*
X008647Y024748D02*
X007449Y024748D01*
X007503Y024906D02*
X008593Y024906D01*
X008593Y025065D02*
X007503Y025065D01*
X007448Y025223D02*
X008649Y025223D01*
X008772Y025382D02*
X007325Y025382D01*
X009103Y028076D02*
X009143Y028076D01*
X009143Y028235D02*
X009103Y028235D01*
X009103Y028393D02*
X009143Y028393D01*
X009474Y025382D02*
X009772Y025382D01*
X009649Y025223D02*
X009597Y025223D01*
X009599Y024748D02*
X009647Y024748D01*
X009768Y024589D02*
X009478Y024589D01*
X010478Y024589D02*
X013712Y024589D01*
X013582Y024748D02*
X010599Y024748D01*
X010653Y024906D02*
X013529Y024906D01*
X013530Y025065D02*
X010653Y025065D01*
X010597Y025223D02*
X013584Y025223D01*
X013718Y025382D02*
X010474Y025382D01*
X014028Y025382D02*
X014028Y025382D01*
X014028Y025223D02*
X014028Y025223D01*
X014028Y025065D02*
X014028Y025065D01*
X014028Y024906D02*
X014028Y024906D01*
X014028Y024748D02*
X014028Y024748D01*
X014028Y024589D02*
X014028Y024589D01*
X013573Y011275D02*
X013533Y011275D01*
X013533Y011117D02*
X013573Y011117D01*
X013573Y010958D02*
X013533Y010958D01*
X013533Y010800D02*
X013573Y010800D01*
X013573Y010641D02*
X013533Y010641D01*
X013533Y010483D02*
X013573Y010483D01*
X003468Y024589D02*
X003179Y024589D01*
X003300Y024748D02*
X003348Y024748D01*
X003349Y025223D02*
X003298Y025223D01*
X003175Y025382D02*
X003473Y025382D01*
M02*
