G75*
%MOIN*%
%OFA0B0*%
%FSLAX24Y24*%
%IPPOS*%
%LPD*%
%AMOC8*
5,1,8,0,0,1.08239X$1,22.5*
%
%ADD10OC8,0.0660*%
%ADD11C,0.0740*%
%ADD12C,0.0520*%
%ADD13C,0.0600*%
%ADD14C,0.0650*%
%ADD15C,0.1700*%
%ADD16C,0.0100*%
%ADD17C,0.0400*%
D10*
X001517Y008467D03*
X001517Y009467D03*
X001517Y010467D03*
X001517Y011467D03*
X002517Y011467D03*
X002517Y010467D03*
X002517Y009467D03*
X002517Y008467D03*
D11*
X001643Y018015D03*
X001643Y019015D03*
X001643Y020015D03*
X001643Y021015D03*
X001643Y022015D03*
X001643Y023015D03*
X002824Y024983D03*
X003824Y024983D03*
X005973Y024983D03*
X006973Y024983D03*
X006367Y026952D03*
X006367Y027952D03*
X009123Y027952D03*
X009123Y026952D03*
X009123Y024983D03*
X010123Y024983D03*
X011879Y026952D03*
X011879Y027952D03*
X016210Y022684D03*
X016210Y021684D03*
X016210Y020684D03*
X016210Y019684D03*
X016210Y018684D03*
D12*
X015623Y016901D02*
X015623Y016381D01*
X014623Y016381D02*
X014623Y016901D01*
X013623Y016901D02*
X013623Y016381D01*
X012623Y016381D02*
X012623Y016901D01*
X011623Y016901D02*
X011623Y016381D01*
X010623Y016381D02*
X010623Y016901D01*
X009623Y016901D02*
X009623Y016381D01*
X008623Y016381D02*
X008623Y016901D01*
X007623Y016901D02*
X007623Y016381D01*
X006623Y016381D02*
X006623Y016901D01*
X005623Y016901D02*
X005623Y016381D01*
X004623Y016381D02*
X004623Y016901D01*
X003623Y016901D02*
X003623Y016381D01*
X002623Y016381D02*
X002623Y016901D01*
X002623Y013901D02*
X002623Y013381D01*
X003623Y013381D02*
X003623Y013901D01*
X004623Y013901D02*
X004623Y013381D01*
X005623Y013381D02*
X005623Y013901D01*
X006623Y013901D02*
X006623Y013381D01*
X007623Y013381D02*
X007623Y013901D01*
X008623Y013901D02*
X008623Y013381D01*
X009623Y013381D02*
X009623Y013901D01*
X010623Y013901D02*
X010623Y013381D01*
X011623Y013381D02*
X011623Y013901D01*
X012623Y013901D02*
X012623Y013381D01*
X013623Y013381D02*
X013623Y013901D01*
X014623Y013901D02*
X014623Y013381D01*
X015623Y013381D02*
X015623Y013901D01*
X008654Y011783D02*
X008654Y011263D01*
X007654Y011263D02*
X007654Y011783D01*
X006654Y011783D02*
X006654Y011263D01*
X005654Y011263D02*
X005654Y011783D01*
X005654Y008783D02*
X005654Y008263D01*
X006654Y008263D02*
X006654Y008783D01*
X007654Y008783D02*
X007654Y008263D01*
X008654Y008263D02*
X008654Y008783D01*
D13*
X010693Y009133D02*
X011293Y009133D01*
X011293Y010913D02*
X010693Y010913D01*
X013253Y010913D02*
X013853Y010913D01*
X013853Y009133D02*
X013253Y009133D01*
X005486Y005904D02*
X004886Y005904D01*
X004886Y004904D02*
X005486Y004904D01*
X005486Y003904D02*
X004886Y003904D01*
D14*
X008729Y003904D03*
X008729Y004904D03*
X011091Y004904D03*
X011091Y003904D03*
X007548Y018471D03*
X007548Y019471D03*
X007367Y022227D03*
X005367Y022227D03*
X005186Y019471D03*
X005186Y018471D03*
X014028Y024983D03*
X015028Y024983D03*
D15*
X015147Y007542D03*
X016328Y005692D03*
X013965Y005692D03*
D16*
X004962Y005180D02*
X004462Y005180D01*
X001462Y008180D01*
X001517Y008467D01*
X001517Y009467D02*
X001462Y009680D01*
X000962Y009680D01*
X000962Y012180D01*
X001462Y012680D01*
X001962Y012680D01*
X002462Y013180D01*
X002623Y013641D01*
X003462Y012180D02*
X001462Y012180D01*
X002462Y011680D02*
X002517Y011467D01*
X002462Y011680D02*
X003962Y011680D01*
X005462Y013180D01*
X005623Y013641D01*
X006462Y013180D02*
X006623Y013641D01*
X006462Y013180D02*
X004962Y011680D01*
X004462Y011680D01*
X003462Y010680D01*
X002462Y010680D01*
X002517Y010467D01*
X002462Y009680D02*
X002517Y009467D01*
X002462Y009680D02*
X002962Y009680D01*
X004462Y011180D01*
X004962Y011180D02*
X005462Y011180D01*
X005654Y011523D01*
X005462Y011680D01*
X006462Y011680D01*
X006654Y011523D01*
X006462Y011680D02*
X007462Y011680D01*
X007654Y011523D01*
X007462Y011680D02*
X008462Y011680D01*
X008654Y011523D01*
X008462Y011680D02*
X008462Y013180D01*
X008623Y013641D01*
X008462Y013680D01*
X009462Y014680D01*
X009462Y016180D01*
X009623Y016641D01*
X009462Y016680D01*
X008462Y017680D01*
X004462Y017680D01*
X001962Y020180D01*
X001643Y020015D01*
X001643Y021015D02*
X001962Y021180D01*
X002462Y021180D01*
X002462Y023180D01*
X001962Y023680D01*
X001962Y025180D01*
X005462Y028680D01*
X012462Y028680D01*
X012462Y025680D01*
X013962Y024180D01*
X014462Y024180D01*
X014462Y020180D01*
X013962Y019680D02*
X015962Y019680D01*
X016210Y019684D01*
X016210Y018684D02*
X015962Y018680D01*
X014462Y018680D01*
X010962Y022180D01*
X011962Y021680D02*
X013962Y019680D01*
X015962Y017680D02*
X010962Y017680D01*
X009462Y019180D01*
X008962Y019180D02*
X008962Y024680D01*
X009123Y024983D01*
X008462Y024180D02*
X006462Y024180D01*
X005962Y024680D01*
X005973Y024983D01*
X006973Y024983D02*
X006962Y025180D01*
X008462Y026680D01*
X008962Y026680D01*
X009123Y026952D01*
X009962Y025180D02*
X010123Y024983D01*
X009962Y025180D02*
X011462Y026680D01*
X011962Y026680D01*
X011879Y026952D01*
X008462Y024180D02*
X008462Y019680D01*
X008962Y019180D02*
X010462Y017680D01*
X010462Y016680D01*
X010623Y016641D01*
X009962Y015680D02*
X015462Y015680D01*
X015462Y015180D02*
X009962Y015180D01*
X008962Y014680D02*
X007962Y015680D01*
X002462Y015680D01*
X000962Y017180D01*
X000962Y021680D01*
X001462Y021680D01*
X001643Y022015D01*
X003962Y023680D02*
X002962Y024680D01*
X002824Y024983D01*
X003824Y024983D02*
X003962Y025180D01*
X005462Y026680D01*
X006462Y026680D01*
X006367Y026952D01*
X007962Y023680D02*
X003962Y023680D01*
X005367Y022227D02*
X005462Y022180D01*
X005462Y020180D01*
X004962Y020180D01*
X004462Y019680D01*
X004462Y018680D01*
X004962Y018680D01*
X005186Y018471D01*
X006962Y018680D02*
X007462Y018680D01*
X007548Y018471D01*
X006962Y018680D02*
X006962Y019680D01*
X007462Y020180D01*
X007462Y022180D01*
X007367Y022227D01*
X007962Y021180D02*
X007962Y023680D01*
X008462Y013680D02*
X007462Y013680D01*
X007623Y013641D01*
X007462Y010680D02*
X009462Y010680D01*
X011462Y012680D01*
X015962Y012680D01*
X016462Y013180D01*
X016462Y014680D01*
X016462Y015180D02*
X015462Y014180D01*
X015462Y013680D01*
X015623Y013641D01*
X016462Y012680D02*
X013962Y010180D01*
X007962Y010180D01*
X006462Y008680D01*
X006654Y008523D01*
X007462Y008680D02*
X007654Y008523D01*
X007462Y008680D02*
X008462Y009680D01*
X014462Y009680D01*
X016962Y012180D01*
X014623Y013641D02*
X014462Y013680D01*
X016462Y015680D01*
X016962Y015680D01*
X017462Y016180D01*
X017462Y018680D01*
X016462Y018680D01*
X016210Y018684D01*
X015623Y016641D02*
X015462Y016180D01*
X016962Y016180D01*
X016462Y021680D02*
X016210Y021684D01*
X016462Y021680D02*
X016462Y022680D01*
X016210Y022684D01*
X007462Y010680D02*
X005462Y008680D01*
X005654Y008523D01*
X004962Y006180D02*
X005186Y005904D01*
X005462Y005680D01*
X010462Y005680D01*
X010962Y005180D01*
X011091Y004904D01*
X010962Y005180D02*
X012962Y007180D01*
X014962Y007180D01*
X015147Y007542D01*
X014962Y007180D02*
X015962Y006180D01*
X016328Y005692D01*
X008962Y004680D02*
X008729Y004904D01*
X008962Y004680D02*
X005462Y004680D01*
X005186Y004904D01*
X004962Y005180D01*
X004962Y006180D02*
X004962Y011180D01*
X003462Y012180D02*
X004462Y013180D01*
X004623Y013641D01*
D17*
X004462Y011180D03*
X001462Y012180D03*
X007962Y021180D03*
X008462Y019680D03*
X009462Y019180D03*
X010962Y022180D03*
X011962Y021680D03*
X014462Y020180D03*
X015962Y017680D03*
X016962Y016180D03*
X016462Y015180D03*
X016462Y014680D03*
X015462Y015180D03*
X015462Y015680D03*
X016462Y012680D03*
X016962Y012180D03*
X009962Y015180D03*
X009962Y015680D03*
X008962Y014680D03*
M02*
