%
M48
M72
T01C0.0240
T02C0.0276
T03C0.0320
T04C0.0400
T05C0.1180
T06C0.1300
%
T01
X4462Y11180
X1462Y12180
X7962Y21180
X8462Y19680
X9462Y19180
X10962Y22180
X11962Y21680
X14462Y20180
X15962Y17680
X16962Y16180
X16462Y15180
X16462Y14680
X15462Y15180
X15462Y15680
X16462Y12680
X16962Y12180
X9962Y15180
X9962Y15680
X8962Y14680
T02
X7548Y18471
X7548Y19471
X7367Y22227
X5367Y22227
X5186Y19471
X5186Y18471
X14028Y24983
X15028Y24983
X11091Y4904
X11091Y3904
X8729Y3904
X8729Y4904
T03
X8654Y8523
X7654Y8523
X6654Y8523
X5654Y8523
X5654Y11523
X6654Y11523
X7654Y11523
X8654Y11523
X8623Y13641
X9623Y13641
X10623Y13641
X11623Y13641
X12623Y13641
X13623Y13641
X14623Y13641
X15623Y13641
X15623Y16641
X14623Y16641
X13623Y16641
X12623Y16641
X11623Y16641
X10623Y16641
X9623Y16641
X8623Y16641
X7623Y16641
X6623Y16641
X5623Y16641
X4623Y16641
X3623Y16641
X2623Y16641
X2623Y13641
X3623Y13641
X4623Y13641
X5623Y13641
X6623Y13641
X7623Y13641
T04
X10993Y10913
X10993Y9133
X13553Y9133
X13553Y10913
X16210Y18684
X16210Y19684
X16210Y20684
X16210Y21684
X16210Y22684
X11879Y26952
X11879Y27952
X10123Y24983
X9123Y24983
X9123Y26952
X9123Y27952
X6973Y24983
X5973Y24983
X6367Y26952
X6367Y27952
X3824Y24983
X2824Y24983
X1643Y23015
X1643Y22015
X1643Y21015
X1643Y20015
X1643Y19015
X1643Y18015
X1517Y11467
X1517Y10467
X1517Y9467
X1517Y8467
X2517Y8467
X2517Y9467
X2517Y10467
X2517Y11467
X5186Y5904
X5186Y4904
X5186Y3904
T05
X13965Y5692
X15147Y7542
X16328Y5692
T06
X2430Y2149
X16210Y2149
X16210Y27739
X2430Y27739
M30
