%
M48
M72
T01C0.0240
T02C0.0320
T03C0.0400
T04C0.0433
T05C0.1300
%
T01
X7680Y4680
X10680Y7180
X9680Y15680
T02
X12460Y8373
X13460Y8373
X14460Y8373
X15460Y8373
X15460Y5373
X14460Y5373
X13460Y5373
X12460Y5373
T03
X12471Y11617
X12471Y12617
X12471Y13617
X12471Y14617
X11471Y14617
X11471Y13617
X11471Y12617
X11471Y11617
X11365Y17330
X11365Y18330
X11365Y19330
X11365Y20330
X11365Y21330
X11365Y22330
X9841Y24983
X8841Y24983
X8841Y26952
X8841Y27952
X6692Y24983
X5692Y24983
X6086Y26952
X6086Y27952
X3542Y24983
X2542Y24983
X11597Y26952
X11597Y27952
T04
X8259Y21629
X8259Y20629
X8259Y19629
X8259Y18629
X8259Y17629
X8259Y16629
X8259Y15629
X8259Y14629
X8259Y13629
X8259Y12629
X8259Y11629
X8259Y10629
X8259Y9629
X8259Y8629
X8259Y7629
X8259Y6629
X8259Y5629
X2259Y5629
X2259Y6629
X2259Y7629
X2259Y8629
X2259Y9629
X2259Y10629
X2259Y11629
X2259Y12629
X2259Y13629
X2259Y14629
X2259Y15629
X2259Y16629
X2259Y17629
X2259Y18629
X2259Y19629
X2259Y20629
X2259Y21629
T05
X2149Y2149
X15928Y2149
X15928Y27739
X2149Y27739
M30
