%
M48
M72
T01C0.0240
T02C0.0320
T03C0.0400
T04C0.0433
%
T01
X6180Y5680
X6680Y3180
X10680Y5680
X13680Y7180
X14680Y7180
X10680Y12180
X10180Y13680
X11180Y14180
X7680Y18180
T02
X11278Y5617
X12278Y5617
X13278Y5617
X14278Y5617
X14278Y2617
X13278Y2617
X12278Y2617
X11278Y2617
T03
X12652Y8861
X12652Y9861
X12652Y10861
X12652Y11861
X13652Y11861
X13652Y10861
X13652Y9861
X13652Y8861
X12546Y14180
X12546Y15180
X12546Y16180
X12546Y17180
X12546Y18180
X12546Y19180
X13566Y23015
X14566Y23015
X13960Y24983
X13960Y25983
X8660Y23015
X7660Y23015
X8054Y24983
X8054Y25983
X2755Y23015
X1755Y23015
X2149Y24983
X2149Y25983
T04
X2652Y3660
X2652Y4660
X2652Y5660
X2652Y6660
X2652Y7660
X2652Y8660
X2652Y9660
X2652Y10660
X2652Y11660
X2652Y12660
X2652Y13660
X2652Y14660
X2652Y15660
X2652Y16660
X2652Y17660
X2652Y18660
X2652Y19660
X8652Y19660
X8652Y18660
X8652Y17660
X8652Y16660
X8652Y15660
X8652Y14660
X8652Y13660
X8652Y12660
X8652Y11660
X8652Y10660
X8652Y9660
X8652Y8660
X8652Y7660
X8652Y6660
X8652Y5660
X8652Y4660
X8652Y3660
M30
