%
M48
M72
T01C0.0240
T02C0.0400
T03C0.0433
%
T01
X7680Y3180
T02
X12652Y4924
X12652Y5924
X12652Y6924
X12652Y7924
X13652Y7924
X13652Y6924
X13652Y5924
X13652Y4924
X12546Y14180
X12546Y15180
X12546Y16180
X12546Y17180
X12546Y18180
X12546Y19180
X13566Y23015
X14566Y23015
X13960Y24983
X13960Y25983
X8660Y23015
X7660Y23015
X8054Y24983
X8054Y25983
X2755Y23015
X1755Y23015
X2149Y24983
X2149Y25983
T03
X2652Y3660
X2652Y4660
X2652Y5660
X2652Y6660
X2652Y7660
X2652Y8660
X2652Y9660
X2652Y10660
X2652Y11660
X2652Y12660
X2652Y13660
X2652Y14660
X2652Y15660
X2652Y16660
X2652Y17660
X2652Y18660
X2652Y19660
X8652Y19660
X8652Y18660
X8652Y17660
X8652Y16660
X8652Y15660
X8652Y14660
X8652Y13660
X8652Y12660
X8652Y11660
X8652Y10660
X8652Y9660
X8652Y8660
X8652Y7660
X8652Y6660
X8652Y5660
X8652Y4660
X8652Y3660
M30
