G75*
%MOIN*%
%OFA0B0*%
%FSLAX24Y24*%
%IPPOS*%
%LPD*%
%AMOC8*
5,1,8,0,0,1.08239X$1,22.5*
%
%ADD10C,0.0840*%
%ADD11OC8,0.0740*%
%ADD12OC8,0.0680*%
%ADD13C,0.0820*%
%ADD14C,0.0600*%
%ADD15C,0.1380*%
%ADD16C,0.0480*%
D10*
X002259Y005629D03*
X002259Y006629D03*
X002259Y007629D03*
X002259Y008629D03*
X002259Y009629D03*
X002259Y010629D03*
X002259Y011629D03*
X002259Y012629D03*
X002259Y013629D03*
X002259Y014629D03*
X002259Y015629D03*
X002259Y016629D03*
X002259Y017629D03*
X002259Y018629D03*
X002259Y019629D03*
X002259Y020629D03*
X002259Y021629D03*
X008259Y021629D03*
X008259Y020629D03*
X008259Y019629D03*
X008259Y018629D03*
X008259Y017629D03*
X008259Y016629D03*
X008259Y015629D03*
X008259Y014629D03*
X008259Y013629D03*
X008259Y012629D03*
X008259Y011629D03*
X008259Y010629D03*
X008259Y009629D03*
X008259Y008629D03*
X008259Y007629D03*
X008259Y006629D03*
X008259Y005629D03*
D11*
X011471Y011617D03*
X011471Y012617D03*
X011471Y013617D03*
X011471Y014617D03*
X012471Y014617D03*
X012471Y013617D03*
X012471Y012617D03*
X012471Y011617D03*
D12*
X011365Y017330D03*
X011365Y018330D03*
X011365Y019330D03*
X011365Y020330D03*
X011365Y021330D03*
X011365Y022330D03*
D13*
X009841Y024983D03*
X008841Y024983D03*
X008841Y026952D03*
X008841Y027952D03*
X006692Y024983D03*
X005692Y024983D03*
X006086Y026952D03*
X006086Y027952D03*
X003542Y024983D03*
X002542Y024983D03*
X011597Y026952D03*
X011597Y027952D03*
D14*
X012460Y008633D02*
X012460Y008113D01*
X013460Y008113D02*
X013460Y008633D01*
X014460Y008633D02*
X014460Y008113D01*
X015460Y008113D02*
X015460Y008633D01*
X015460Y005633D02*
X015460Y005113D01*
X014460Y005113D02*
X014460Y005633D01*
X013460Y005633D02*
X013460Y005113D01*
X012460Y005113D02*
X012460Y005633D01*
D15*
X002149Y002149D03*
X015928Y002149D03*
X015928Y027739D03*
X002149Y027739D03*
D16*
X009680Y015680D03*
X010680Y007180D03*
X007680Y004680D03*
M02*
