G75*
%MOIN*%
%OFA0B0*%
%FSLAX24Y24*%
%IPPOS*%
%LPD*%
%AMOC8*
5,1,8,0,0,1.08239X$1,22.5*
%
%ADD10C,0.0760*%
%ADD11OC8,0.0660*%
%ADD12OC8,0.0600*%
%ADD13C,0.0740*%
%ADD14C,0.0520*%
%ADD15C,0.0100*%
%ADD16C,0.0400*%
D10*
X002652Y003660D03*
X002652Y004660D03*
X002652Y005660D03*
X002652Y006660D03*
X002652Y007660D03*
X002652Y008660D03*
X002652Y009660D03*
X002652Y010660D03*
X002652Y011660D03*
X002652Y012660D03*
X002652Y013660D03*
X002652Y014660D03*
X002652Y015660D03*
X002652Y016660D03*
X002652Y017660D03*
X002652Y018660D03*
X002652Y019660D03*
X008652Y019660D03*
X008652Y018660D03*
X008652Y017660D03*
X008652Y016660D03*
X008652Y015660D03*
X008652Y014660D03*
X008652Y013660D03*
X008652Y012660D03*
X008652Y011660D03*
X008652Y010660D03*
X008652Y009660D03*
X008652Y008660D03*
X008652Y007660D03*
X008652Y006660D03*
X008652Y005660D03*
X008652Y004660D03*
X008652Y003660D03*
D11*
X012652Y008861D03*
X012652Y009861D03*
X012652Y010861D03*
X012652Y011861D03*
X013652Y011861D03*
X013652Y010861D03*
X013652Y009861D03*
X013652Y008861D03*
D12*
X012546Y014180D03*
X012546Y015180D03*
X012546Y016180D03*
X012546Y017180D03*
X012546Y018180D03*
X012546Y019180D03*
D13*
X013566Y023015D03*
X014566Y023015D03*
X013960Y024983D03*
X013960Y025983D03*
X008660Y023015D03*
X007660Y023015D03*
X008054Y024983D03*
X008054Y025983D03*
X002755Y023015D03*
X001755Y023015D03*
X002149Y024983D03*
X002149Y025983D03*
D14*
X011278Y005877D02*
X011278Y005357D01*
X012278Y005357D02*
X012278Y005877D01*
X013278Y005877D02*
X013278Y005357D01*
X014278Y005357D02*
X014278Y005877D01*
X014278Y002877D02*
X014278Y002357D01*
X013278Y002357D02*
X013278Y002877D01*
X012278Y002877D02*
X012278Y002357D01*
X011278Y002357D02*
X011278Y002877D01*
D15*
X001680Y003680D02*
X001680Y004680D01*
X002680Y004680D01*
X002652Y004660D01*
X002680Y003680D02*
X002652Y003660D01*
X002680Y003680D02*
X004180Y002180D01*
X008680Y002180D01*
X010180Y003680D01*
X014680Y003680D01*
X014680Y006180D01*
X013680Y007180D01*
X013680Y007680D02*
X015180Y006180D01*
X015180Y001680D01*
X003680Y001680D01*
X001680Y003680D01*
X006180Y005180D02*
X002680Y008680D01*
X002652Y008660D01*
X006180Y005680D02*
X006180Y019680D01*
X008680Y019680D01*
X008652Y019660D01*
X008680Y018680D02*
X008652Y018660D01*
X008680Y018680D02*
X006680Y018680D01*
X006680Y003180D01*
X006180Y002680D02*
X008680Y002680D01*
X011180Y005180D01*
X011278Y005617D01*
X011180Y005680D01*
X012180Y005680D01*
X012278Y005617D01*
X012180Y005680D02*
X013180Y005680D01*
X013278Y005617D01*
X013180Y005680D02*
X014180Y005680D01*
X014278Y005617D01*
X014680Y007180D02*
X014680Y016680D01*
X008680Y016680D01*
X008652Y016660D01*
X008680Y015680D02*
X008652Y015660D01*
X008680Y015680D02*
X014180Y015680D01*
X014180Y010680D01*
X013680Y010180D01*
X013652Y009861D01*
X013180Y011180D02*
X013180Y007680D01*
X013680Y007680D01*
X012652Y009861D02*
X012680Y010180D01*
X010680Y012180D01*
X010680Y012680D02*
X009680Y011680D01*
X009680Y009680D01*
X008680Y009680D01*
X008652Y009660D01*
X008652Y010660D02*
X008680Y010680D01*
X009180Y010680D01*
X009180Y011680D01*
X012680Y015180D01*
X012546Y015180D01*
X012546Y014180D02*
X012680Y014180D01*
X011180Y012680D01*
X010680Y012680D01*
X010180Y013680D02*
X009180Y014680D01*
X008680Y014680D01*
X008652Y014660D01*
X008680Y012680D02*
X007680Y012680D01*
X007680Y018180D01*
X008660Y023015D02*
X008680Y023180D01*
X008680Y024680D01*
X008180Y024680D01*
X008054Y024983D01*
X010680Y020180D02*
X012680Y018180D01*
X012546Y018180D01*
X012680Y018180D02*
X012680Y017180D01*
X012546Y017180D01*
X011180Y014180D02*
X008680Y011680D01*
X008652Y011660D01*
X008652Y012660D02*
X008680Y012680D01*
X010680Y005680D02*
X008680Y003680D01*
X008652Y003660D01*
X006180Y002680D02*
X006180Y005180D01*
X013180Y011180D02*
X013680Y011680D01*
X013652Y011861D01*
X010680Y020180D02*
X004180Y020180D01*
X002680Y018680D01*
X002652Y018660D01*
X002755Y023015D02*
X002680Y023180D01*
X002680Y024680D01*
X002180Y024680D01*
X002149Y024983D01*
X013960Y024983D02*
X014180Y025180D01*
X014680Y025180D01*
X014680Y023180D01*
X014566Y023015D01*
D16*
X011180Y014180D03*
X010180Y013680D03*
X010680Y012180D03*
X013680Y007180D03*
X014680Y007180D03*
X010680Y005680D03*
X006680Y003180D03*
X006180Y005680D03*
X007680Y018180D03*
M02*
