G75*
%MOIN*%
%OFA0B0*%
%FSLAX24Y24*%
%IPPOS*%
%LPD*%
%AMOC8*
5,1,8,0,0,1.08239X$1,22.5*
%
%ADD10C,0.0060*%
%ADD11C,0.0050*%
%ADD12C,0.0080*%
%ADD13R,0.0400X0.0150*%
D10*
X000997Y000997D02*
X000997Y001638D01*
X001318Y001638D01*
X001424Y001531D01*
X001424Y001318D01*
X001318Y001211D01*
X000997Y001211D01*
X001211Y001211D02*
X001424Y000997D01*
X001642Y001104D02*
X001749Y000997D01*
X001962Y000997D01*
X002069Y001104D01*
X002069Y001211D01*
X001962Y001318D01*
X001749Y001318D01*
X001642Y001424D01*
X001642Y001531D01*
X001749Y001638D01*
X001962Y001638D01*
X002069Y001531D01*
X006509Y001638D02*
X006509Y000997D01*
X006936Y000997D01*
X006723Y001318D02*
X006509Y001318D01*
X006509Y001638D02*
X006936Y001638D01*
X007154Y001638D02*
X007154Y000997D01*
X007154Y001211D02*
X007474Y001211D01*
X007581Y001318D01*
X007581Y001531D01*
X007474Y001638D01*
X007154Y001638D01*
X007367Y001211D02*
X007581Y000997D01*
X007798Y000997D02*
X007798Y001638D01*
X008225Y000997D01*
X008225Y001638D01*
X008443Y001638D02*
X008443Y000997D01*
X008870Y000997D01*
X008656Y001318D02*
X008443Y001318D01*
X008443Y001638D02*
X008870Y001638D01*
X009087Y001531D02*
X009087Y001424D01*
X009194Y001318D01*
X009408Y001318D01*
X009514Y001211D01*
X009514Y001104D01*
X009408Y000997D01*
X009194Y000997D01*
X009087Y001104D01*
X009087Y001531D02*
X009194Y001638D01*
X009408Y001638D01*
X009514Y001531D01*
X009732Y001638D02*
X010159Y001638D01*
X009945Y001638D02*
X009945Y000997D01*
X010478Y002167D02*
X010478Y003467D01*
X010478Y004767D01*
X010678Y004767D01*
X010678Y003467D01*
X010478Y003467D01*
X010978Y003367D02*
X011578Y003367D01*
X011578Y004867D01*
X010978Y004867D01*
X010978Y003367D01*
X010478Y002167D02*
X015078Y002167D01*
X015078Y003467D01*
X015078Y004767D01*
X015078Y006067D01*
X010478Y006067D01*
X010478Y004767D01*
X011978Y004867D02*
X011978Y003367D01*
X012578Y003367D01*
X012578Y004867D01*
X011978Y004867D01*
X012978Y004867D02*
X012978Y003367D01*
X013578Y003367D01*
X013578Y004867D01*
X012978Y004867D01*
X013978Y004867D02*
X013978Y003367D01*
X014578Y003367D01*
X014578Y004867D01*
X013978Y004867D01*
X014878Y004767D02*
X014878Y003467D01*
X015078Y003467D01*
X015078Y004767D02*
X014878Y004767D01*
X014561Y001638D02*
X014347Y001638D01*
X014240Y001531D01*
X014240Y001104D01*
X014667Y001531D01*
X014667Y001104D01*
X014561Y000997D01*
X014347Y000997D01*
X014240Y001104D01*
X014023Y001424D02*
X013809Y000997D01*
X013596Y001424D01*
X014561Y001638D02*
X014667Y001531D01*
X014885Y001104D02*
X014992Y001104D01*
X014992Y000997D01*
X014885Y000997D01*
X014885Y001104D01*
X015207Y000997D02*
X015634Y001424D01*
X015634Y001531D01*
X015527Y001638D01*
X015314Y001638D01*
X015207Y001531D01*
X015207Y000997D02*
X015634Y000997D01*
X013902Y008361D02*
X012402Y008361D01*
X012152Y008611D01*
X012152Y009111D01*
X012402Y009361D01*
X013902Y009361D01*
X014152Y009611D01*
X014152Y010111D01*
X013902Y010361D01*
X012402Y010361D01*
X012152Y010611D01*
X012152Y011111D01*
X012402Y011361D01*
X012152Y011611D01*
X012152Y012111D01*
X012402Y012361D01*
X013902Y012361D01*
X014152Y012111D01*
X014152Y011611D01*
X013902Y011361D01*
X012402Y011361D01*
X012402Y010361D02*
X012152Y010111D01*
X012152Y009611D01*
X012402Y009361D01*
X013902Y009361D02*
X014152Y009111D01*
X014152Y008611D01*
X013902Y008361D01*
X013902Y010361D02*
X014152Y010611D01*
X014152Y011111D01*
X013902Y011361D01*
X012796Y013680D02*
X013046Y013930D01*
X013046Y014430D01*
X012796Y014680D01*
X013046Y014930D01*
X013046Y015430D01*
X012796Y015680D01*
X012296Y015680D01*
X012046Y015430D01*
X012046Y014930D01*
X012296Y014680D01*
X012796Y014680D01*
X012296Y014680D02*
X012046Y014430D01*
X012046Y013930D01*
X012296Y013680D01*
X012796Y013680D01*
X012796Y015680D02*
X013046Y015930D01*
X013046Y016430D01*
X012796Y016680D01*
X013046Y016930D01*
X013046Y017430D01*
X012796Y017680D01*
X013046Y017930D01*
X013046Y018430D01*
X012796Y018680D01*
X013046Y018930D01*
X013046Y019430D01*
X012796Y019680D01*
X012296Y019680D01*
X012046Y019430D01*
X012046Y018930D01*
X012296Y018680D01*
X012796Y018680D01*
X012296Y018680D02*
X012046Y018430D01*
X012046Y017930D01*
X012296Y017680D01*
X012796Y017680D01*
X012296Y017680D02*
X012046Y017430D01*
X012046Y016930D01*
X012296Y016680D01*
X012796Y016680D01*
X012296Y016680D02*
X012046Y016430D01*
X012046Y015930D01*
X012296Y015680D01*
D11*
X009252Y021160D02*
X002052Y021160D01*
X002052Y002160D01*
X009252Y002160D01*
X009252Y021160D01*
D12*
X008910Y022515D02*
X008410Y022515D01*
X008160Y022765D01*
X007910Y022515D01*
X007410Y022515D01*
X007160Y022765D01*
X007160Y023265D01*
X007410Y023515D01*
X007910Y023515D01*
X008160Y023265D01*
X008410Y023515D01*
X008910Y023515D01*
X009160Y023265D01*
X009160Y022765D01*
X008910Y022515D01*
X008304Y024483D02*
X007804Y024483D01*
X007554Y024733D01*
X007554Y025233D01*
X007804Y025483D01*
X007554Y025733D01*
X007554Y026233D01*
X007804Y026483D01*
X008304Y026483D01*
X008554Y026233D01*
X008554Y025733D01*
X008304Y025483D01*
X008554Y025233D01*
X008554Y024733D01*
X008304Y024483D01*
X013066Y023265D02*
X013066Y022765D01*
X013316Y022515D01*
X013816Y022515D01*
X014066Y022765D01*
X014316Y022515D01*
X014816Y022515D01*
X015066Y022765D01*
X015066Y023265D01*
X014816Y023515D01*
X014316Y023515D01*
X014066Y023265D01*
X013816Y023515D01*
X013316Y023515D01*
X013066Y023265D01*
X013710Y024483D02*
X013460Y024733D01*
X013460Y025233D01*
X013710Y025483D01*
X013460Y025733D01*
X013460Y026233D01*
X013710Y026483D01*
X014210Y026483D01*
X014460Y026233D01*
X014460Y025733D01*
X014210Y025483D01*
X014460Y025233D01*
X014460Y024733D01*
X014210Y024483D01*
X013710Y024483D01*
X003255Y023265D02*
X003255Y022765D01*
X003005Y022515D01*
X002505Y022515D01*
X002255Y022765D01*
X002005Y022515D01*
X001505Y022515D01*
X001255Y022765D01*
X001255Y023265D01*
X001505Y023515D01*
X002005Y023515D01*
X002255Y023265D01*
X002505Y023515D01*
X003005Y023515D01*
X003255Y023265D01*
X002399Y024483D02*
X002649Y024733D01*
X002649Y025233D01*
X002399Y025483D01*
X002649Y025733D01*
X002649Y026233D01*
X002399Y026483D01*
X001899Y026483D01*
X001649Y026233D01*
X001649Y025733D01*
X001899Y025483D01*
X001649Y025233D01*
X001649Y024733D01*
X001899Y024483D01*
X002399Y024483D01*
D13*
X011278Y004042D03*
X011278Y003792D03*
X011278Y003542D03*
X012278Y003542D03*
X012278Y003792D03*
X012278Y004042D03*
X013278Y004042D03*
X013278Y003792D03*
X013278Y003542D03*
X014278Y003542D03*
X014278Y003792D03*
X014278Y004042D03*
M02*
